<svg id="visual" viewBox="0 0 450 900" width="450" height="900" xmlns="http://www.w3.org/2000/svg" xmlns:xlink="http://www.w3.org/1999/xlink" version="1.1"><g stroke-width="1" stroke-linejoin="bevel"><path d="M167 427L166 371L123 386Z" fill="#bfd0e6" stroke="#FFFFFF"></path><path d="M123 386L99 464L167 427Z" fill="#bfd0e6" stroke="#FFFFFF"></path><path d="M166 371L76 301L123 386Z" fill="#b8cce4" stroke="#FFFFFF"></path><path d="M123 386L0 437L99 464Z" fill="#c5d4e8" stroke="#FFFFFF"></path><path d="M166 371L160 274L76 301Z" fill="#b8cce4" stroke="#FFFFFF"></path><path d="M167 427L276 345L166 371Z" fill="#c5d4e8" stroke="#FFFFFF"></path><path d="M166 371L276 345L160 274Z" fill="#d8e1ed" stroke="#FFFFFF"></path><path d="M99 464L204 531L167 427Z" fill="#b1c7e3" stroke="#FFFFFF"></path><path d="M167 427L302 447L276 345Z" fill="#b1c7e3" stroke="#FFFFFF"></path><path d="M204 531L246 523L167 427Z" fill="#e5eaf1" stroke="#FFFFFF"></path><path d="M0 335L0 437L123 386Z" fill="#bfd0e6" stroke="#FFFFFF"></path><path d="M99 464L56 550L204 531Z" fill="#bfd0e6" stroke="#FFFFFF"></path><path d="M246 523L302 447L167 427Z" fill="#e5eaf1" stroke="#FFFFFF"></path><path d="M344 267L281 299L276 345Z" fill="#cbd8ea" stroke="#FFFFFF"></path><path d="M276 345L281 299L160 274Z" fill="#e5eaf1" stroke="#FFFFFF"></path><path d="M76 301L0 335L123 386Z" fill="#bfd0e6" stroke="#FFFFFF"></path><path d="M0 513L56 550L99 464Z" fill="#e5eaf1" stroke="#FFFFFF"></path><path d="M76 301L0 301L0 335Z" fill="#bfd0e6" stroke="#FFFFFF"></path><path d="M0 158L0 301L76 301Z" fill="#b1c7e3" stroke="#FFFFFF"></path><path d="M0 437L0 513L99 464Z" fill="#a4bfdf" stroke="#FFFFFF"></path><path d="M165 160L117 211L160 274Z" fill="#e5eaf1" stroke="#FFFFFF"></path><path d="M160 274L117 211L76 301Z" fill="#a4bfdf" stroke="#FFFFFF"></path><path d="M378 469L354 393L302 447Z" fill="#b1c7e3" stroke="#FFFFFF"></path><path d="M302 447L354 393L276 345Z" fill="#cbd8ea" stroke="#FFFFFF"></path><path d="M85 608L195 599L204 531Z" fill="#d2ddec" stroke="#FFFFFF"></path><path d="M204 531L195 599L246 523Z" fill="#d2ddec" stroke="#FFFFFF"></path><path d="M246 523L337 507L302 447Z" fill="#b8cce4" stroke="#FFFFFF"></path><path d="M270 608L337 507L246 523Z" fill="#c5d4e8" stroke="#FFFFFF"></path><path d="M0 604L85 608L56 550Z" fill="#b1c7e3" stroke="#FFFFFF"></path><path d="M56 550L85 608L204 531Z" fill="#b8cce4" stroke="#FFFFFF"></path><path d="M354 393L344 267L276 345Z" fill="#e5eaf1" stroke="#FFFFFF"></path><path d="M250 158L165 160L160 274Z" fill="#cbd8ea" stroke="#FFFFFF"></path><path d="M337 507L378 469L302 447Z" fill="#c5d4e8" stroke="#FFFFFF"></path><path d="M354 393L450 278L344 267Z" fill="#c5d4e8" stroke="#FFFFFF"></path><path d="M250 158L160 274L281 299Z" fill="#b8cce4" stroke="#FFFFFF"></path><path d="M117 211L0 158L76 301Z" fill="#cbd8ea" stroke="#FFFFFF"></path><path d="M195 599L270 608L246 523Z" fill="#b8cce4" stroke="#FFFFFF"></path><path d="M450 509L450 462L378 469Z" fill="#abc3e1" stroke="#FFFFFF"></path><path d="M182 689L270 608L195 599Z" fill="#abc3e1" stroke="#FFFFFF"></path><path d="M0 513L0 604L56 550Z" fill="#b8cce4" stroke="#FFFFFF"></path><path d="M333 209L250 158L281 299Z" fill="#d8e1ed" stroke="#FFFFFF"></path><path d="M344 267L333 209L281 299Z" fill="#dfe6ef" stroke="#FFFFFF"></path><path d="M98 67L117 211L165 160Z" fill="#cbd8ea" stroke="#FFFFFF"></path><path d="M98 67L0 158L117 211Z" fill="#bfd0e6" stroke="#FFFFFF"></path><path d="M80 696L182 689L85 608Z" fill="#d8e1ed" stroke="#FFFFFF"></path><path d="M85 608L182 689L195 599Z" fill="#b1c7e3" stroke="#FFFFFF"></path><path d="M450 462L450 393L378 469Z" fill="#bfd0e6" stroke="#FFFFFF"></path><path d="M378 469L450 393L354 393Z" fill="#b8cce4" stroke="#FFFFFF"></path><path d="M344 267L450 202L333 209Z" fill="#dfe6ef" stroke="#FFFFFF"></path><path d="M450 509L378 469L337 507Z" fill="#abc3e1" stroke="#FFFFFF"></path><path d="M328 655L337 507L270 608Z" fill="#c5d4e8" stroke="#FFFFFF"></path><path d="M0 604L80 696L85 608Z" fill="#cbd8ea" stroke="#FFFFFF"></path><path d="M302 744L328 655L270 608Z" fill="#b1c7e3" stroke="#FFFFFF"></path><path d="M450 651L450 509L337 507Z" fill="#dfe6ef" stroke="#FFFFFF"></path><path d="M450 393L450 278L354 393Z" fill="#c5d4e8" stroke="#FFFFFF"></path><path d="M268 77L147 73L250 158Z" fill="#e5eaf1" stroke="#FFFFFF"></path><path d="M268 77L250 158L333 209Z" fill="#dfe6ef" stroke="#FFFFFF"></path><path d="M250 158L147 73L165 160Z" fill="#dfe6ef" stroke="#FFFFFF"></path><path d="M147 73L98 67L165 160Z" fill="#a4bfdf" stroke="#FFFFFF"></path><path d="M376 61L268 77L333 209Z" fill="#d8e1ed" stroke="#FFFFFF"></path><path d="M147 73L98 0L98 67Z" fill="#c5d4e8" stroke="#FFFFFF"></path><path d="M0 604L0 708L80 696Z" fill="#dfe6ef" stroke="#FFFFFF"></path><path d="M186 796L302 744L182 689Z" fill="#e5eaf1" stroke="#FFFFFF"></path><path d="M98 67L0 79L0 158Z" fill="#abc3e1" stroke="#FFFFFF"></path><path d="M450 278L450 202L344 267Z" fill="#d2ddec" stroke="#FFFFFF"></path><path d="M186 796L182 689L80 696Z" fill="#d8e1ed" stroke="#FFFFFF"></path><path d="M182 689L302 744L270 608Z" fill="#b1c7e3" stroke="#FFFFFF"></path><path d="M328 655L450 651L337 507Z" fill="#abc3e1" stroke="#FFFFFF"></path><path d="M302 744L351 726L328 655Z" fill="#c5d4e8" stroke="#FFFFFF"></path><path d="M450 686L450 651L328 655Z" fill="#b8cce4" stroke="#FFFFFF"></path><path d="M85 843L186 796L80 696Z" fill="#e5eaf1" stroke="#FFFFFF"></path><path d="M302 744L362 780L351 726Z" fill="#dfe6ef" stroke="#FFFFFF"></path><path d="M207 0L98 0L147 73Z" fill="#a4bfdf" stroke="#FFFFFF"></path><path d="M98 67L0 0L0 79Z" fill="#c5d4e8" stroke="#FFFFFF"></path><path d="M263 0L207 0L268 77Z" fill="#bfd0e6" stroke="#FFFFFF"></path><path d="M268 77L207 0L147 73Z" fill="#b8cce4" stroke="#FFFFFF"></path><path d="M450 202L376 61L333 209Z" fill="#b1c7e3" stroke="#FFFFFF"></path><path d="M450 792L450 686L351 726Z" fill="#d2ddec" stroke="#FFFFFF"></path><path d="M351 726L450 686L328 655Z" fill="#d2ddec" stroke="#FFFFFF"></path><path d="M329 0L263 0L268 77Z" fill="#d8e1ed" stroke="#FFFFFF"></path><path d="M186 796L296 794L302 744Z" fill="#abc3e1" stroke="#FFFFFF"></path><path d="M98 0L0 0L98 67Z" fill="#cbd8ea" stroke="#FFFFFF"></path><path d="M0 708L0 803L80 696Z" fill="#c5d4e8" stroke="#FFFFFF"></path><path d="M186 796L280 900L296 794Z" fill="#b8cce4" stroke="#FFFFFF"></path><path d="M450 202L450 84L376 61Z" fill="#a4bfdf" stroke="#FFFFFF"></path><path d="M376 61L329 0L268 77Z" fill="#cbd8ea" stroke="#FFFFFF"></path><path d="M296 794L362 780L302 744Z" fill="#c5d4e8" stroke="#FFFFFF"></path><path d="M450 0L329 0L376 61Z" fill="#b1c7e3" stroke="#FFFFFF"></path><path d="M0 803L85 843L80 696Z" fill="#d8e1ed" stroke="#FFFFFF"></path><path d="M362 900L450 792L362 780Z" fill="#a4bfdf" stroke="#FFFFFF"></path><path d="M362 900L362 780L296 794Z" fill="#d2ddec" stroke="#FFFFFF"></path><path d="M362 780L450 792L351 726Z" fill="#b1c7e3" stroke="#FFFFFF"></path><path d="M450 84L450 0L376 61Z" fill="#a4bfdf" stroke="#FFFFFF"></path><path d="M62 900L172 900L85 843Z" fill="#cbd8ea" stroke="#FFFFFF"></path><path d="M85 843L172 900L186 796Z" fill="#c5d4e8" stroke="#FFFFFF"></path><path d="M0 900L62 900L85 843Z" fill="#d2ddec" stroke="#FFFFFF"></path><path d="M172 900L280 900L186 796Z" fill="#bfd0e6" stroke="#FFFFFF"></path><path d="M0 803L0 900L85 843Z" fill="#b8cce4" stroke="#FFFFFF"></path><path d="M280 900L362 900L296 794Z" fill="#c5d4e8" stroke="#FFFFFF"></path><path d="M362 900L450 900L450 792Z" fill="#cbd8ea" stroke="#FFFFFF"></path></g></svg>