<svg id="visual" viewBox="0 0 600 900" width="600" height="900" xmlns="http://www.w3.org/2000/svg" xmlns:xlink="http://www.w3.org/1999/xlink" version="1.1"><g stroke-width="1" stroke-linejoin="bevel"><path d="M283 404L288 323L216 317Z" fill="#a4bfdf" stroke="#FFFFFF"></path><path d="M216 317L166 402L283 404Z" fill="#d2ddec" stroke="#FFFFFF"></path><path d="M216 317L120 388L166 402Z" fill="#d2ddec" stroke="#FFFFFF"></path><path d="M119 500L198 495L166 402Z" fill="#b8cce4" stroke="#FFFFFF"></path><path d="M166 402L198 495L283 404Z" fill="#abc3e1" stroke="#FFFFFF"></path><path d="M301 213L202 222L216 317Z" fill="#e5eaf1" stroke="#FFFFFF"></path><path d="M216 317L79 331L120 388Z" fill="#b1c7e3" stroke="#FFFFFF"></path><path d="M386 283L301 213L288 323Z" fill="#cbd8ea" stroke="#FFFFFF"></path><path d="M288 323L301 213L216 317Z" fill="#e5eaf1" stroke="#FFFFFF"></path><path d="M407 495L405 383L283 404Z" fill="#bfd0e6" stroke="#FFFFFF"></path><path d="M283 404L405 383L288 323Z" fill="#a4bfdf" stroke="#FFFFFF"></path><path d="M405 383L386 283L288 323Z" fill="#dfe6ef" stroke="#FFFFFF"></path><path d="M198 495L301 512L283 404Z" fill="#d2ddec" stroke="#FFFFFF"></path><path d="M202 222L79 331L216 317Z" fill="#b8cce4" stroke="#FFFFFF"></path><path d="M120 388L119 500L166 402Z" fill="#b8cce4" stroke="#FFFFFF"></path><path d="M226 568L280 566L301 512Z" fill="#cbd8ea" stroke="#FFFFFF"></path><path d="M0 483L119 500L120 388Z" fill="#dfe6ef" stroke="#FFFFFF"></path><path d="M226 568L301 512L198 495Z" fill="#a4bfdf" stroke="#FFFFFF"></path><path d="M301 512L407 495L283 404Z" fill="#c5d4e8" stroke="#FFFFFF"></path><path d="M432 610L407 495L301 512Z" fill="#abc3e1" stroke="#FFFFFF"></path><path d="M119 500L226 568L198 495Z" fill="#e5eaf1" stroke="#FFFFFF"></path><path d="M526 220L405 187L386 283Z" fill="#dfe6ef" stroke="#FFFFFF"></path><path d="M386 283L405 187L301 213Z" fill="#c5d4e8" stroke="#FFFFFF"></path><path d="M207 72L70 177L202 222Z" fill="#b8cce4" stroke="#FFFFFF"></path><path d="M504 320L386 283L405 383Z" fill="#abc3e1" stroke="#FFFFFF"></path><path d="M0 328L0 372L79 331Z" fill="#e5eaf1" stroke="#FFFFFF"></path><path d="M79 331L0 372L120 388Z" fill="#bfd0e6" stroke="#FFFFFF"></path><path d="M0 217L0 328L79 331Z" fill="#a4bfdf" stroke="#FFFFFF"></path><path d="M313 99L202 222L301 213Z" fill="#a4bfdf" stroke="#FFFFFF"></path><path d="M202 222L70 177L79 331Z" fill="#d8e1ed" stroke="#FFFFFF"></path><path d="M507 401L504 320L405 383Z" fill="#b1c7e3" stroke="#FFFFFF"></path><path d="M501 481L507 401L405 383Z" fill="#d2ddec" stroke="#FFFFFF"></path><path d="M389 124L313 99L301 213Z" fill="#abc3e1" stroke="#FFFFFF"></path><path d="M0 483L88 579L119 500Z" fill="#bfd0e6" stroke="#FFFFFF"></path><path d="M119 500L88 579L226 568Z" fill="#b8cce4" stroke="#FFFFFF"></path><path d="M410 711L432 610L280 566Z" fill="#dfe6ef" stroke="#FFFFFF"></path><path d="M466 94L389 124L405 187Z" fill="#d8e1ed" stroke="#FFFFFF"></path><path d="M405 187L389 124L301 213Z" fill="#b1c7e3" stroke="#FFFFFF"></path><path d="M0 372L0 483L120 388Z" fill="#abc3e1" stroke="#FFFFFF"></path><path d="M469 590L501 481L407 495Z" fill="#d8e1ed" stroke="#FFFFFF"></path><path d="M407 495L501 481L405 383Z" fill="#d8e1ed" stroke="#FFFFFF"></path><path d="M70 177L0 217L79 331Z" fill="#b8cce4" stroke="#FFFFFF"></path><path d="M313 99L207 72L202 222Z" fill="#d2ddec" stroke="#FFFFFF"></path><path d="M70 177L0 88L0 217Z" fill="#d8e1ed" stroke="#FFFFFF"></path><path d="M280 566L432 610L301 512Z" fill="#b8cce4" stroke="#FFFFFF"></path><path d="M276 731L280 566L226 568Z" fill="#bfd0e6" stroke="#FFFFFF"></path><path d="M504 320L526 220L386 283Z" fill="#c5d4e8" stroke="#FFFFFF"></path><path d="M600 272L526 220L504 320Z" fill="#d2ddec" stroke="#FFFFFF"></path><path d="M600 402L504 320L507 401Z" fill="#abc3e1" stroke="#FFFFFF"></path><path d="M432 610L469 590L407 495Z" fill="#e5eaf1" stroke="#FFFFFF"></path><path d="M207 72L92 71L70 177Z" fill="#a4bfdf" stroke="#FFFFFF"></path><path d="M526 220L466 94L405 187Z" fill="#bfd0e6" stroke="#FFFFFF"></path><path d="M407 0L271 0L313 99Z" fill="#e5eaf1" stroke="#FFFFFF"></path><path d="M313 99L271 0L207 72Z" fill="#a4bfdf" stroke="#FFFFFF"></path><path d="M600 469L507 401L501 481Z" fill="#bfd0e6" stroke="#FFFFFF"></path><path d="M600 469L600 402L507 401Z" fill="#b8cce4" stroke="#FFFFFF"></path><path d="M0 483L0 622L88 579Z" fill="#d8e1ed" stroke="#FFFFFF"></path><path d="M88 579L173 721L226 568Z" fill="#abc3e1" stroke="#FFFFFF"></path><path d="M407 0L313 99L389 124Z" fill="#e5eaf1" stroke="#FFFFFF"></path><path d="M207 72L112 0L92 71Z" fill="#b8cce4" stroke="#FFFFFF"></path><path d="M600 402L600 272L504 320Z" fill="#cbd8ea" stroke="#FFFFFF"></path><path d="M526 220L600 82L466 94Z" fill="#abc3e1" stroke="#FFFFFF"></path><path d="M271 0L208 0L207 72Z" fill="#cbd8ea" stroke="#FFFFFF"></path><path d="M600 567L600 469L501 481Z" fill="#bfd0e6" stroke="#FFFFFF"></path><path d="M73 702L173 721L88 579Z" fill="#d8e1ed" stroke="#FFFFFF"></path><path d="M0 0L0 88L92 71Z" fill="#bfd0e6" stroke="#FFFFFF"></path><path d="M92 71L0 88L70 177Z" fill="#d2ddec" stroke="#FFFFFF"></path><path d="M173 721L276 731L226 568Z" fill="#c5d4e8" stroke="#FFFFFF"></path><path d="M432 610L482 675L469 590Z" fill="#abc3e1" stroke="#FFFFFF"></path><path d="M0 622L73 702L88 579Z" fill="#abc3e1" stroke="#FFFFFF"></path><path d="M600 272L600 207L526 220Z" fill="#b8cce4" stroke="#FFFFFF"></path><path d="M276 731L410 711L280 566Z" fill="#d8e1ed" stroke="#FFFFFF"></path><path d="M469 590L600 567L501 481Z" fill="#a4bfdf" stroke="#FFFFFF"></path><path d="M208 0L112 0L207 72Z" fill="#a4bfdf" stroke="#FFFFFF"></path><path d="M410 711L482 675L432 610Z" fill="#abc3e1" stroke="#FFFFFF"></path><path d="M507 0L407 0L466 94Z" fill="#b1c7e3" stroke="#FFFFFF"></path><path d="M466 94L407 0L389 124Z" fill="#b8cce4" stroke="#FFFFFF"></path><path d="M482 675L600 567L469 590Z" fill="#abc3e1" stroke="#FFFFFF"></path><path d="M276 731L403 768L410 711Z" fill="#e5eaf1" stroke="#FFFFFF"></path><path d="M173 721L200 777L276 731Z" fill="#e5eaf1" stroke="#FFFFFF"></path><path d="M86 766L200 777L173 721Z" fill="#abc3e1" stroke="#FFFFFF"></path><path d="M0 622L0 709L73 702Z" fill="#d8e1ed" stroke="#FFFFFF"></path><path d="M73 702L86 766L173 721Z" fill="#cbd8ea" stroke="#FFFFFF"></path><path d="M330 799L403 768L276 731Z" fill="#b1c7e3" stroke="#FFFFFF"></path><path d="M410 711L492 777L482 675Z" fill="#c5d4e8" stroke="#FFFFFF"></path><path d="M482 675L600 709L600 567Z" fill="#c5d4e8" stroke="#FFFFFF"></path><path d="M0 709L86 766L73 702Z" fill="#d2ddec" stroke="#FFFFFF"></path><path d="M112 0L0 0L92 71Z" fill="#c5d4e8" stroke="#FFFFFF"></path><path d="M600 82L507 0L466 94Z" fill="#a4bfdf" stroke="#FFFFFF"></path><path d="M292 900L330 799L200 777Z" fill="#b8cce4" stroke="#FFFFFF"></path><path d="M200 777L330 799L276 731Z" fill="#c5d4e8" stroke="#FFFFFF"></path><path d="M600 207L600 82L526 220Z" fill="#dfe6ef" stroke="#FFFFFF"></path><path d="M494 900L492 777L403 768Z" fill="#dfe6ef" stroke="#FFFFFF"></path><path d="M403 768L492 777L410 711Z" fill="#cbd8ea" stroke="#FFFFFF"></path><path d="M492 777L600 709L482 675Z" fill="#abc3e1" stroke="#FFFFFF"></path><path d="M600 82L600 0L507 0Z" fill="#d8e1ed" stroke="#FFFFFF"></path><path d="M0 709L0 832L86 766Z" fill="#b8cce4" stroke="#FFFFFF"></path><path d="M111 900L183 900L200 777Z" fill="#a4bfdf" stroke="#FFFFFF"></path><path d="M183 900L292 900L200 777Z" fill="#dfe6ef" stroke="#FFFFFF"></path><path d="M330 799L366 900L403 768Z" fill="#cbd8ea" stroke="#FFFFFF"></path><path d="M111 900L200 777L86 766Z" fill="#abc3e1" stroke="#FFFFFF"></path><path d="M292 900L366 900L330 799Z" fill="#e5eaf1" stroke="#FFFFFF"></path><path d="M492 777L600 823L600 709Z" fill="#d8e1ed" stroke="#FFFFFF"></path><path d="M0 832L111 900L86 766Z" fill="#d2ddec" stroke="#FFFFFF"></path><path d="M494 900L600 823L492 777Z" fill="#d8e1ed" stroke="#FFFFFF"></path><path d="M366 900L494 900L403 768Z" fill="#dfe6ef" stroke="#FFFFFF"></path><path d="M0 832L0 900L111 900Z" fill="#d2ddec" stroke="#FFFFFF"></path><path d="M494 900L600 900L600 823Z" fill="#d8e1ed" stroke="#FFFFFF"></path></g></svg>