<svg id="visual" viewBox="0 0 600 900" width="600" height="900" xmlns="http://www.w3.org/2000/svg" xmlns:xlink="http://www.w3.org/1999/xlink" version="1.1"><g stroke-width="1" stroke-linejoin="bevel"><path d="M329.3 441.5L318.3 479.5L363.8 490.5Z" fill="#abc3e1" stroke="#FFFFFF"></path><path d="M363.8 490.5L404.4 422.5L329.3 441.5Z" fill="#b1c7e3" stroke="#FFFFFF"></path><path d="M404.4 422.5L358.8 396.5L329.3 441.5Z" fill="#abc3e1" stroke="#FFFFFF"></path><path d="M404.4 475.5L404.4 422.5L363.8 490.5Z" fill="#e5eaf1" stroke="#FFFFFF"></path><path d="M358.8 396.5L303.7 399.5L329.3 441.5Z" fill="#b8cce4" stroke="#FFFFFF"></path><path d="M329.3 441.5L254.7 462.5L318.3 479.5Z" fill="#d8e1ed" stroke="#FFFFFF"></path><path d="M303.7 399.5L254.7 462.5L329.3 441.5Z" fill="#b1c7e3" stroke="#FFFFFF"></path><path d="M307.3 551.4L363.8 490.5L318.3 479.5Z" fill="#abc3e1" stroke="#FFFFFF"></path><path d="M307.3 551.4L350.8 558.4L363.8 490.5Z" fill="#bfd0e6" stroke="#FFFFFF"></path><path d="M363.8 490.5L408.4 551.4L404.4 475.5Z" fill="#b1c7e3" stroke="#FFFFFF"></path><path d="M254.7 462.5L272.7 523.4L318.3 479.5Z" fill="#b1c7e3" stroke="#FFFFFF"></path><path d="M272.7 523.4L307.3 551.4L318.3 479.5Z" fill="#a4bfdf" stroke="#FFFFFF"></path><path d="M350.8 558.4L375.8 560.4L363.8 490.5Z" fill="#cbd8ea" stroke="#FFFFFF"></path><path d="M272.7 523.4L301.3 556.4L307.3 551.4Z" fill="#d2ddec" stroke="#FFFFFF"></path><path d="M307.3 551.4L301.3 556.4L350.8 558.4Z" fill="#abc3e1" stroke="#FFFFFF"></path><path d="M350.8 558.4L355.8 661.2L375.8 560.4Z" fill="#bfd0e6" stroke="#FFFFFF"></path><path d="M413.8 372.6L348.3 365.6L358.8 396.5Z" fill="#b8cce4" stroke="#FFFFFF"></path><path d="M358.8 396.5L348.3 365.6L303.7 399.5Z" fill="#a4bfdf" stroke="#FFFFFF"></path><path d="M375.8 560.4L408.4 551.4L363.8 490.5Z" fill="#d2ddec" stroke="#FFFFFF"></path><path d="M450.4 358.6L413.8 372.6L404.4 422.5Z" fill="#dfe6ef" stroke="#FFFFFF"></path><path d="M375.8 560.4L410.4 558.4L408.4 551.4Z" fill="#e5eaf1" stroke="#FFFFFF"></path><path d="M408.4 551.4L461.9 508.5L404.4 475.5Z" fill="#b1c7e3" stroke="#FFFFFF"></path><path d="M495.9 425.5L404.4 422.5L404.4 475.5Z" fill="#a4bfdf" stroke="#FFFFFF"></path><path d="M404.4 422.5L413.8 372.6L358.8 396.5Z" fill="#d2ddec" stroke="#FFFFFF"></path><path d="M348.3 365.6L298.7 355.6L303.7 399.5Z" fill="#d2ddec" stroke="#FFFFFF"></path><path d="M196.2 390.5L209.2 460.5L254.7 462.5Z" fill="#cbd8ea" stroke="#FFFFFF"></path><path d="M310.3 330.6L298.7 355.6L348.3 365.6Z" fill="#b1c7e3" stroke="#FFFFFF"></path><path d="M475.9 541.4L461.9 508.5L408.4 551.4Z" fill="#d2ddec" stroke="#FFFFFF"></path><path d="M234.2 550.4L252.7 559.4L272.7 523.4Z" fill="#e5eaf1" stroke="#FFFFFF"></path><path d="M272.7 523.4L252.7 559.4L301.3 556.4Z" fill="#abc3e1" stroke="#FFFFFF"></path><path d="M301.3 556.4L294.7 639.3L350.8 558.4Z" fill="#cbd8ea" stroke="#FFFFFF"></path><path d="M196.2 390.5L254.7 462.5L303.7 399.5Z" fill="#a4bfdf" stroke="#FFFFFF"></path><path d="M254.7 462.5L203.2 510.4L272.7 523.4Z" fill="#b1c7e3" stroke="#FFFFFF"></path><path d="M203.2 510.4L234.2 550.4L272.7 523.4Z" fill="#dfe6ef" stroke="#FFFFFF"></path><path d="M350.8 297.6L310.3 330.6L348.3 365.6Z" fill="#b1c7e3" stroke="#FFFFFF"></path><path d="M298.7 355.6L241.7 345.6L303.7 399.5Z" fill="#b8cce4" stroke="#FFFFFF"></path><path d="M209.2 460.5L203.2 510.4L254.7 462.5Z" fill="#b1c7e3" stroke="#FFFFFF"></path><path d="M410.4 558.4L475.9 541.4L408.4 551.4Z" fill="#d8e1ed" stroke="#FFFFFF"></path><path d="M495.9 425.5L450.4 358.6L404.4 422.5Z" fill="#e5eaf1" stroke="#FFFFFF"></path><path d="M495.9 425.5L404.4 475.5L461.9 508.5Z" fill="#e5eaf1" stroke="#FFFFFF"></path><path d="M413.8 372.6L421.4 318.6L348.3 365.6Z" fill="#abc3e1" stroke="#FFFFFF"></path><path d="M512.5 457.5L495.9 425.5L461.9 508.5Z" fill="#a4bfdf" stroke="#FFFFFF"></path><path d="M310.3 330.6L241.7 345.6L298.7 355.6Z" fill="#e5eaf1" stroke="#FFFFFF"></path><path d="M450.4 358.6L421.4 318.6L413.8 372.6Z" fill="#d2ddec" stroke="#FFFFFF"></path><path d="M475.9 541.4L512.5 457.5L461.9 508.5Z" fill="#bfd0e6" stroke="#FFFFFF"></path><path d="M241.7 345.6L196.2 390.5L303.7 399.5Z" fill="#e5eaf1" stroke="#FFFFFF"></path><path d="M141.6 498.5L176.6 534.4L203.2 510.4Z" fill="#abc3e1" stroke="#FFFFFF"></path><path d="M421.4 318.6L350.8 297.6L348.3 365.6Z" fill="#dfe6ef" stroke="#FFFFFF"></path><path d="M310.3 330.6L297.3 288.7L241.7 345.6Z" fill="#b1c7e3" stroke="#FFFFFF"></path><path d="M450.4 358.6L481.9 287.6L421.4 318.6Z" fill="#abc3e1" stroke="#FFFFFF"></path><path d="M495.9 425.5L483.9 355.6L450.4 358.6Z" fill="#d2ddec" stroke="#FFFFFF"></path><path d="M555.5 337.6L483.9 355.6L495.9 425.5Z" fill="#e5eaf1" stroke="#FFFFFF"></path><path d="M210.2 620.3L252.7 559.4L234.2 550.4Z" fill="#bfd0e6" stroke="#FFFFFF"></path><path d="M210.2 620.3L294.7 639.3L252.7 559.4Z" fill="#b1c7e3" stroke="#FFFFFF"></path><path d="M252.7 559.4L294.7 639.3L301.3 556.4Z" fill="#a4bfdf" stroke="#FFFFFF"></path><path d="M375.8 560.4L368.8 666.3L410.4 558.4Z" fill="#b8cce4" stroke="#FFFFFF"></path><path d="M517.5 608.4L518.9 556.4L475.9 541.4Z" fill="#cbd8ea" stroke="#FFFFFF"></path><path d="M141.6 498.5L203.2 510.4L209.2 460.5Z" fill="#d8e1ed" stroke="#FFFFFF"></path><path d="M203.2 510.4L176.6 534.4L234.2 550.4Z" fill="#e5eaf1" stroke="#FFFFFF"></path><path d="M350.8 297.6L297.3 288.7L310.3 330.6Z" fill="#cbd8ea" stroke="#FFFFFF"></path><path d="M241.7 345.6L197.2 338.6L196.2 390.5Z" fill="#c5d4e8" stroke="#FFFFFF"></path><path d="M481.9 287.6L405.8 282.7L421.4 318.6Z" fill="#cbd8ea" stroke="#FFFFFF"></path><path d="M421.4 318.6L405.8 282.7L350.8 297.6Z" fill="#b8cce4" stroke="#FFFFFF"></path><path d="M353.3 208.8L289.7 217.8L297.3 288.7Z" fill="#a4bfdf" stroke="#FFFFFF"></path><path d="M294.7 639.3L355.8 661.2L350.8 558.4Z" fill="#c5d4e8" stroke="#FFFFFF"></path><path d="M466.4 638.3L475.9 541.4L410.4 558.4Z" fill="#c5d4e8" stroke="#FFFFFF"></path><path d="M475.9 541.4L518.9 556.4L512.5 457.5Z" fill="#a4bfdf" stroke="#FFFFFF"></path><path d="M206.2 306.6L197.2 338.6L241.7 345.6Z" fill="#d8e1ed" stroke="#FFFFFF"></path><path d="M130.6 422.5L141.6 498.5L209.2 460.5Z" fill="#b1c7e3" stroke="#FFFFFF"></path><path d="M340.3 666.2L351.3 664.3L355.8 661.2Z" fill="#b8cce4" stroke="#FFFFFF"></path><path d="M355.8 661.2L368.8 666.3L375.8 560.4Z" fill="#abc3e1" stroke="#FFFFFF"></path><path d="M294.7 639.3L340.3 666.2L355.8 661.2Z" fill="#abc3e1" stroke="#FFFFFF"></path><path d="M359.8 759.2L368.8 666.3L351.3 664.3Z" fill="#dfe6ef" stroke="#FFFFFF"></path><path d="M351.3 664.3L368.8 666.3L355.8 661.2Z" fill="#d8e1ed" stroke="#FFFFFF"></path><path d="M171.6 586.4L210.2 620.3L234.2 550.4Z" fill="#e5eaf1" stroke="#FFFFFF"></path><path d="M294.7 639.3L263.7 690.2L340.3 666.2Z" fill="#d2ddec" stroke="#FFFFFF"></path><path d="M130.6 422.5L209.2 460.5L196.2 390.5Z" fill="#c5d4e8" stroke="#FFFFFF"></path><path d="M176.6 534.4L171.6 586.4L234.2 550.4Z" fill="#dfe6ef" stroke="#FFFFFF"></path><path d="M417.4 678.2L466.4 638.3L410.4 558.4Z" fill="#d2ddec" stroke="#FFFFFF"></path><path d="M118.1 544.4L171.6 586.4L176.6 534.4Z" fill="#cbd8ea" stroke="#FFFFFF"></path><path d="M566.5 521.4L555.5 437.5L512.5 457.5Z" fill="#bfd0e6" stroke="#FFFFFF"></path><path d="M512.5 457.5L555.5 437.5L495.9 425.5Z" fill="#b1c7e3" stroke="#FFFFFF"></path><path d="M244.7 277.7L206.2 306.6L241.7 345.6Z" fill="#cbd8ea" stroke="#FFFFFF"></path><path d="M142.6 372.6L130.6 422.5L196.2 390.5Z" fill="#d2ddec" stroke="#FFFFFF"></path><path d="M289.7 217.8L244.7 277.7L297.3 288.7Z" fill="#a4bfdf" stroke="#FFFFFF"></path><path d="M297.3 288.7L244.7 277.7L241.7 345.6Z" fill="#c5d4e8" stroke="#FFFFFF"></path><path d="M142.6 372.6L196.2 390.5L197.2 338.6Z" fill="#bfd0e6" stroke="#FFFFFF"></path><path d="M466.4 638.3L517.5 608.4L475.9 541.4Z" fill="#d2ddec" stroke="#FFFFFF"></path><path d="M518.9 556.4L566.5 521.4L512.5 457.5Z" fill="#dfe6ef" stroke="#FFFFFF"></path><path d="M428.4 717.2L417.4 678.2L368.8 666.3Z" fill="#e5eaf1" stroke="#FFFFFF"></path><path d="M368.8 666.3L417.4 678.2L410.4 558.4Z" fill="#dfe6ef" stroke="#FFFFFF"></path><path d="M466.4 638.3L511.9 655.3L517.5 608.4Z" fill="#c5d4e8" stroke="#FFFFFF"></path><path d="M190.6 298.6L142.6 372.6L197.2 338.6Z" fill="#bfd0e6" stroke="#FFFFFF"></path><path d="M512.5 290.7L481.9 287.6L483.9 355.6Z" fill="#d2ddec" stroke="#FFFFFF"></path><path d="M483.9 355.6L481.9 287.6L450.4 358.6Z" fill="#abc3e1" stroke="#FFFFFF"></path><path d="M171.6 586.4L194.6 635.3L210.2 620.3Z" fill="#cbd8ea" stroke="#FFFFFF"></path><path d="M241.2 690.2L263.7 690.2L294.7 639.3Z" fill="#b8cce4" stroke="#FFFFFF"></path><path d="M600 590.4L566.5 521.4L518.9 556.4Z" fill="#a4bfdf" stroke="#FFFFFF"></path><path d="M206.2 306.6L190.6 298.6L197.2 338.6Z" fill="#abc3e1" stroke="#FFFFFF"></path><path d="M211.2 263.7L190.6 298.6L206.2 306.6Z" fill="#b8cce4" stroke="#FFFFFF"></path><path d="M442.4 241.7L387.8 237.8L405.8 282.7Z" fill="#a4bfdf" stroke="#FFFFFF"></path><path d="M405.8 282.7L387.8 237.8L350.8 297.6Z" fill="#cbd8ea" stroke="#FFFFFF"></path><path d="M241.2 690.2L294.7 639.3L210.2 620.3Z" fill="#d2ddec" stroke="#FFFFFF"></path><path d="M359.8 759.2L428.4 717.2L368.8 666.3Z" fill="#e5eaf1" stroke="#FFFFFF"></path><path d="M99.1 493.5L118.1 544.4L141.6 498.5Z" fill="#d2ddec" stroke="#FFFFFF"></path><path d="M141.6 498.5L118.1 544.4L176.6 534.4Z" fill="#bfd0e6" stroke="#FFFFFF"></path><path d="M171.6 586.4L155.6 668.2L194.6 635.3Z" fill="#d2ddec" stroke="#FFFFFF"></path><path d="M550.5 316.6L512.5 290.7L483.9 355.6Z" fill="#dfe6ef" stroke="#FFFFFF"></path><path d="M471.9 254.7L442.4 241.7L405.8 282.7Z" fill="#cbd8ea" stroke="#FFFFFF"></path><path d="M289.7 217.8L211.2 263.7L244.7 277.7Z" fill="#d2ddec" stroke="#FFFFFF"></path><path d="M244.7 277.7L211.2 263.7L206.2 306.6Z" fill="#b8cce4" stroke="#FFFFFF"></path><path d="M86.1 342.6L98.1 403.5L142.6 372.6Z" fill="#a4bfdf" stroke="#FFFFFF"></path><path d="M471.9 254.7L405.8 282.7L481.9 287.6Z" fill="#b1c7e3" stroke="#FFFFFF"></path><path d="M600 381.6L555.5 337.6L555.5 437.5Z" fill="#d8e1ed" stroke="#FFFFFF"></path><path d="M555.5 437.5L555.5 337.6L495.9 425.5Z" fill="#b8cce4" stroke="#FFFFFF"></path><path d="M194.6 635.3L241.2 690.2L210.2 620.3Z" fill="#c5d4e8" stroke="#FFFFFF"></path><path d="M512.5 290.7L471.9 254.7L481.9 287.6Z" fill="#b1c7e3" stroke="#FFFFFF"></path><path d="M130.6 422.5L99.1 493.5L141.6 498.5Z" fill="#b8cce4" stroke="#FFFFFF"></path><path d="M74.5 456.5L99.1 493.5L130.6 422.5Z" fill="#dfe6ef" stroke="#FFFFFF"></path><path d="M118.1 544.4L114.1 564.4L171.6 586.4Z" fill="#abc3e1" stroke="#FFFFFF"></path><path d="M194.6 635.3L155.6 668.2L241.2 690.2Z" fill="#c5d4e8" stroke="#FFFFFF"></path><path d="M38.5 552.4L114.1 564.4L118.1 544.4Z" fill="#cbd8ea" stroke="#FFFFFF"></path><path d="M428.4 717.2L511.9 655.3L466.4 638.3Z" fill="#abc3e1" stroke="#FFFFFF"></path><path d="M600 499.5L600 499.4L566.5 521.4Z" fill="#d2ddec" stroke="#FFFFFF"></path><path d="M555.5 337.6L550.5 316.6L483.9 355.6Z" fill="#dfe6ef" stroke="#FFFFFF"></path><path d="M512.5 290.7L472.9 221.8L471.9 254.7Z" fill="#bfd0e6" stroke="#FFFFFF"></path><path d="M353.3 208.8L350.8 297.6L387.8 237.8Z" fill="#dfe6ef" stroke="#FFFFFF"></path><path d="M353.3 208.8L297.3 288.7L350.8 297.6Z" fill="#abc3e1" stroke="#FFFFFF"></path><path d="M86.1 342.6L142.6 372.6L190.6 298.6Z" fill="#c5d4e8" stroke="#FFFFFF"></path><path d="M142.6 372.6L98.1 403.5L130.6 422.5Z" fill="#e5eaf1" stroke="#FFFFFF"></path><path d="M600 499.4L555.5 437.5L566.5 521.4Z" fill="#e5eaf1" stroke="#FFFFFF"></path><path d="M600 499.4L600 444.5L555.5 437.5Z" fill="#e5eaf1" stroke="#FFFFFF"></path><path d="M555.5 337.6L600 311.6L550.5 316.6Z" fill="#cbd8ea" stroke="#FFFFFF"></path><path d="M600 499.5L566.5 521.4L600 590.4Z" fill="#d8e1ed" stroke="#FFFFFF"></path><path d="M600 590.4L518.9 556.4L517.5 608.4Z" fill="#cbd8ea" stroke="#FFFFFF"></path><path d="M412.4 179.8L353.3 208.8L387.8 237.8Z" fill="#abc3e1" stroke="#FFFFFF"></path><path d="M359.8 759.2L351.3 664.3L340.3 666.2Z" fill="#dfe6ef" stroke="#FFFFFF"></path><path d="M417.4 678.2L428.4 717.2L466.4 638.3Z" fill="#e5eaf1" stroke="#FFFFFF"></path><path d="M359.8 759.2L340.3 666.2L298.3 768.2Z" fill="#c5d4e8" stroke="#FFFFFF"></path><path d="M202.2 193.8L190.6 251.7L211.2 263.7Z" fill="#e5eaf1" stroke="#FFFFFF"></path><path d="M211.2 263.7L190.6 251.7L190.6 298.6Z" fill="#abc3e1" stroke="#FFFFFF"></path><path d="M522.9 673.2L537.5 653.3L511.9 655.3Z" fill="#c5d4e8" stroke="#FFFFFF"></path><path d="M511.9 655.3L537.5 653.3L517.5 608.4Z" fill="#e5eaf1" stroke="#FFFFFF"></path><path d="M600 444.5L600 381.6L555.5 437.5Z" fill="#dfe6ef" stroke="#FFFFFF"></path><path d="M98.1 403.5L74.5 456.5L130.6 422.5Z" fill="#d8e1ed" stroke="#FFFFFF"></path><path d="M99.1 493.5L36.5 537.4L118.1 544.4Z" fill="#b8cce4" stroke="#FFFFFF"></path><path d="M428.4 717.2L522.9 673.2L511.9 655.3Z" fill="#e5eaf1" stroke="#FFFFFF"></path><path d="M543.5 189.8L472.9 221.8L512.5 290.7Z" fill="#abc3e1" stroke="#FFFFFF"></path><path d="M471.9 254.7L472.9 221.8L442.4 241.7Z" fill="#b1c7e3" stroke="#FFFFFF"></path><path d="M442.4 241.7L412.4 179.8L387.8 237.8Z" fill="#b1c7e3" stroke="#FFFFFF"></path><path d="M114.1 656.3L155.6 668.2L171.6 586.4Z" fill="#d2ddec" stroke="#FFFFFF"></path><path d="M155.6 668.2L231.2 721.2L241.2 690.2Z" fill="#d2ddec" stroke="#FFFFFF"></path><path d="M241.2 690.2L231.2 721.2L263.7 690.2Z" fill="#b8cce4" stroke="#FFFFFF"></path><path d="M600 653.3L600 590.4L537.5 653.3Z" fill="#abc3e1" stroke="#FFFFFF"></path><path d="M537.5 653.3L600 590.4L517.5 608.4Z" fill="#cbd8ea" stroke="#FFFFFF"></path><path d="M543.5 189.8L464.4 207.8L472.9 221.8Z" fill="#a4bfdf" stroke="#FFFFFF"></path><path d="M472.9 221.8L464.4 207.8L442.4 241.7Z" fill="#e5eaf1" stroke="#FFFFFF"></path><path d="M79.1 287.7L86.1 342.6L190.6 298.6Z" fill="#cbd8ea" stroke="#FFFFFF"></path><path d="M98.1 403.5L35.5 401.5L74.5 456.5Z" fill="#d2ddec" stroke="#FFFFFF"></path><path d="M298.3 768.2L340.3 666.2L263.7 690.2Z" fill="#b1c7e3" stroke="#FFFFFF"></path><path d="M428.4 717.2L475.9 748.2L522.9 673.2Z" fill="#abc3e1" stroke="#FFFFFF"></path><path d="M65.5 342.6L78.1 345.6L86.1 342.6Z" fill="#c5d4e8" stroke="#FFFFFF"></path><path d="M86.1 342.6L78.1 345.6L98.1 403.5Z" fill="#dfe6ef" stroke="#FFFFFF"></path><path d="M464.4 207.8L412.4 179.8L442.4 241.7Z" fill="#d2ddec" stroke="#FFFFFF"></path><path d="M353.3 208.8L302.3 165.8L289.7 217.8Z" fill="#d2ddec" stroke="#FFFFFF"></path><path d="M600 381.6L600 311.6L555.5 337.6Z" fill="#dfe6ef" stroke="#FFFFFF"></path><path d="M550.5 316.6L600 255.7L512.5 290.7Z" fill="#e5eaf1" stroke="#FFFFFF"></path><path d="M114.1 564.4L114.1 656.3L171.6 586.4Z" fill="#a4bfdf" stroke="#FFFFFF"></path><path d="M181.6 772.2L240.2 780.1L231.2 721.2Z" fill="#cbd8ea" stroke="#FFFFFF"></path><path d="M56.5 637.3L114.1 656.3L114.1 564.4Z" fill="#a4bfdf" stroke="#FFFFFF"></path><path d="M322.3 130.9L302.3 165.8L353.3 208.8Z" fill="#a4bfdf" stroke="#FFFFFF"></path><path d="M202.2 193.8L165.6 216.8L190.6 251.7Z" fill="#c5d4e8" stroke="#FFFFFF"></path><path d="M231.2 721.2L298.3 768.2L263.7 690.2Z" fill="#d8e1ed" stroke="#FFFFFF"></path><path d="M297.7 770.2L298.3 768.2L240.2 780.1Z" fill="#cbd8ea" stroke="#FFFFFF"></path><path d="M61.5 308.6L65.5 342.6L86.1 342.6Z" fill="#d8e1ed" stroke="#FFFFFF"></path><path d="M78.1 345.6L35.5 401.5L98.1 403.5Z" fill="#d8e1ed" stroke="#FFFFFF"></path><path d="M79.1 287.7L190.6 298.6L190.6 251.7Z" fill="#d8e1ed" stroke="#FFFFFF"></path><path d="M240.2 780.1L298.3 768.2L231.2 721.2Z" fill="#d8e1ed" stroke="#FFFFFF"></path><path d="M351.3 786.1L363.8 780.1L359.8 759.2Z" fill="#dfe6ef" stroke="#FFFFFF"></path><path d="M202.2 193.8L211.2 263.7L289.7 217.8Z" fill="#bfd0e6" stroke="#FFFFFF"></path><path d="M206.2 174.8L202.2 193.8L289.7 217.8Z" fill="#e5eaf1" stroke="#FFFFFF"></path><path d="M424.4 797.1L428.4 717.2L359.8 759.2Z" fill="#bfd0e6" stroke="#FFFFFF"></path><path d="M424.4 797.1L475.9 748.2L428.4 717.2Z" fill="#dfe6ef" stroke="#FFFFFF"></path><path d="M522.9 673.2L552.5 702.2L537.5 653.3Z" fill="#b1c7e3" stroke="#FFFFFF"></path><path d="M475.9 748.2L552.5 702.2L522.9 673.2Z" fill="#e5eaf1" stroke="#FFFFFF"></path><path d="M414.4 101.9L386.8 155.8L412.4 179.8Z" fill="#a4bfdf" stroke="#FFFFFF"></path><path d="M412.4 179.8L386.8 155.8L353.3 208.8Z" fill="#abc3e1" stroke="#FFFFFF"></path><path d="M351.3 786.1L359.8 759.2L298.3 768.2Z" fill="#b8cce4" stroke="#FFFFFF"></path><path d="M552.5 702.2L600 653.3L537.5 653.3Z" fill="#d2ddec" stroke="#FFFFFF"></path><path d="M65.5 342.6L35.5 401.5L78.1 345.6Z" fill="#bfd0e6" stroke="#FFFFFF"></path><path d="M74.5 456.5L36.5 537.4L99.1 493.5Z" fill="#c5d4e8" stroke="#FFFFFF"></path><path d="M0 487.5L36.5 537.4L74.5 456.5Z" fill="#cbd8ea" stroke="#FFFFFF"></path><path d="M322.3 130.9L287.7 154.8L302.3 165.8Z" fill="#c5d4e8" stroke="#FFFFFF"></path><path d="M302.3 165.8L287.7 154.8L289.7 217.8Z" fill="#c5d4e8" stroke="#FFFFFF"></path><path d="M36.5 537.4L38.5 552.4L118.1 544.4Z" fill="#dfe6ef" stroke="#FFFFFF"></path><path d="M297.7 770.2L351.3 786.1L298.3 768.2Z" fill="#abc3e1" stroke="#FFFFFF"></path><path d="M363.8 780.1L424.4 797.1L359.8 759.2Z" fill="#e5eaf1" stroke="#FFFFFF"></path><path d="M165.6 216.8L79.1 287.7L190.6 251.7Z" fill="#e5eaf1" stroke="#FFFFFF"></path><path d="M0 379.6L0 412.5L35.5 401.5Z" fill="#b8cce4" stroke="#FFFFFF"></path><path d="M202.2 193.8L139.6 177.8L165.6 216.8Z" fill="#d8e1ed" stroke="#FFFFFF"></path><path d="M165.6 216.8L73.5 250.7L79.1 287.7Z" fill="#abc3e1" stroke="#FFFFFF"></path><path d="M287.7 154.8L206.2 174.8L289.7 217.8Z" fill="#bfd0e6" stroke="#FFFFFF"></path><path d="M79.1 287.7L61.5 308.6L86.1 342.6Z" fill="#b8cce4" stroke="#FFFFFF"></path><path d="M63.5 656.2L93.1 676.2L114.1 656.3Z" fill="#dfe6ef" stroke="#FFFFFF"></path><path d="M114.1 656.3L93.1 676.2L155.6 668.2Z" fill="#abc3e1" stroke="#FFFFFF"></path><path d="M181.6 772.2L231.2 721.2L155.6 668.2Z" fill="#dfe6ef" stroke="#FFFFFF"></path><path d="M297.7 770.2L273.7 814.1L351.3 786.1Z" fill="#cbd8ea" stroke="#FFFFFF"></path><path d="M600 311.6L600 255.7L550.5 316.6Z" fill="#b1c7e3" stroke="#FFFFFF"></path><path d="M464.4 207.8L481.9 142.8L412.4 179.8Z" fill="#abc3e1" stroke="#FFFFFF"></path><path d="M38.5 552.4L56.5 637.3L114.1 564.4Z" fill="#e5eaf1" stroke="#FFFFFF"></path><path d="M386.8 155.8L322.3 130.9L353.3 208.8Z" fill="#b8cce4" stroke="#FFFFFF"></path><path d="M189.2 97.9L173.6 135.9L206.2 174.8Z" fill="#bfd0e6" stroke="#FFFFFF"></path><path d="M365.8 848.1L424.4 797.1L363.8 780.1Z" fill="#c5d4e8" stroke="#FFFFFF"></path><path d="M475.9 748.2L567.5 729.2L552.5 702.2Z" fill="#b8cce4" stroke="#FFFFFF"></path><path d="M365.8 848.1L363.8 780.1L351.3 786.1Z" fill="#e5eaf1" stroke="#FFFFFF"></path><path d="M56.5 637.3L63.5 656.2L114.1 656.3Z" fill="#e5eaf1" stroke="#FFFFFF"></path><path d="M154.6 780.1L181.6 772.2L155.6 668.2Z" fill="#abc3e1" stroke="#FFFFFF"></path><path d="M600 255.7L543.5 189.8L512.5 290.7Z" fill="#cbd8ea" stroke="#FFFFFF"></path><path d="M386.8 155.8L372.8 96.9L322.3 130.9Z" fill="#cbd8ea" stroke="#FFFFFF"></path><path d="M521.9 787.1L567.5 729.2L475.9 748.2Z" fill="#bfd0e6" stroke="#FFFFFF"></path><path d="M552.5 702.2L600 703.2L600 653.3Z" fill="#d2ddec" stroke="#FFFFFF"></path><path d="M36.5 537.4L0 520.4L38.5 552.4Z" fill="#b8cce4" stroke="#FFFFFF"></path><path d="M38.5 552.4L0 577.4L56.5 637.3Z" fill="#e5eaf1" stroke="#FFFFFF"></path><path d="M56.5 637.3L0 671.2L63.5 656.2Z" fill="#b8cce4" stroke="#FFFFFF"></path><path d="M0 412.5L0 487.5L74.5 456.5Z" fill="#dfe6ef" stroke="#FFFFFF"></path><path d="M0 412.5L74.5 456.5L35.5 401.5Z" fill="#c5d4e8" stroke="#FFFFFF"></path><path d="M154.6 780.1L155.6 668.2L94.1 734.2Z" fill="#cbd8ea" stroke="#FFFFFF"></path><path d="M79.1 287.7L73.5 250.7L61.5 308.6Z" fill="#abc3e1" stroke="#FFFFFF"></path><path d="M0 379.6L35.5 401.5L65.5 342.6Z" fill="#dfe6ef" stroke="#FFFFFF"></path><path d="M77.1 206.8L73.5 250.7L165.6 216.8Z" fill="#d8e1ed" stroke="#FFFFFF"></path><path d="M567.5 729.2L600 703.2L552.5 702.2Z" fill="#dfe6ef" stroke="#FFFFFF"></path><path d="M600 255.7L600 229.8L543.5 189.8Z" fill="#b1c7e3" stroke="#FFFFFF"></path><path d="M0 487.5L0 520.4L36.5 537.4Z" fill="#bfd0e6" stroke="#FFFFFF"></path><path d="M0 379.6L65.5 342.6L0 326.6Z" fill="#e5eaf1" stroke="#FFFFFF"></path><path d="M513.5 131.8L481.9 142.8L543.5 189.8Z" fill="#b1c7e3" stroke="#FFFFFF"></path><path d="M543.5 189.8L481.9 142.8L464.4 207.8Z" fill="#e5eaf1" stroke="#FFFFFF"></path><path d="M261.7 870.1L273.7 814.1L231.2 867.1Z" fill="#b8cce4" stroke="#FFFFFF"></path><path d="M240.2 780.1L273.7 814.1L297.7 770.2Z" fill="#e5eaf1" stroke="#FFFFFF"></path><path d="M173.6 135.9L139.6 177.8L206.2 174.8Z" fill="#bfd0e6" stroke="#FFFFFF"></path><path d="M206.2 174.8L139.6 177.8L202.2 193.8Z" fill="#b1c7e3" stroke="#FFFFFF"></path><path d="M0 326.6L65.5 342.6L61.5 308.6Z" fill="#b8cce4" stroke="#FFFFFF"></path><path d="M600 780.1L600 717.2L567.5 729.2Z" fill="#d8e1ed" stroke="#FFFFFF"></path><path d="M567.5 729.2L600 717.2L600 703.2Z" fill="#d2ddec" stroke="#FFFFFF"></path><path d="M0 520.4L0 577.4L38.5 552.4Z" fill="#b8cce4" stroke="#FFFFFF"></path><path d="M472.9 831.1L521.9 787.1L475.9 748.2Z" fill="#d8e1ed" stroke="#FFFFFF"></path><path d="M472.9 831.1L475.9 748.2L424.4 797.1Z" fill="#b8cce4" stroke="#FFFFFF"></path><path d="M94.1 734.2L155.6 668.2L93.1 676.2Z" fill="#abc3e1" stroke="#FFFFFF"></path><path d="M231.2 867.1L273.7 814.1L240.2 780.1Z" fill="#bfd0e6" stroke="#FFFFFF"></path><path d="M94.1 734.2L93.1 676.2L28.5 746.2Z" fill="#d2ddec" stroke="#FFFFFF"></path><path d="M84.5 764.1L94.1 734.2L28.5 746.2Z" fill="#abc3e1" stroke="#FFFFFF"></path><path d="M414.4 101.9L372.8 96.9L386.8 155.8Z" fill="#e5eaf1" stroke="#FFFFFF"></path><path d="M189.2 97.9L206.2 174.8L287.7 154.8Z" fill="#e5eaf1" stroke="#FFFFFF"></path><path d="M481.9 142.8L414.4 101.9L412.4 179.8Z" fill="#b8cce4" stroke="#FFFFFF"></path><path d="M71.5 162.8L102.1 184.8L139.6 177.8Z" fill="#dfe6ef" stroke="#FFFFFF"></path><path d="M139.6 177.8L102.1 184.8L165.6 216.8Z" fill="#b1c7e3" stroke="#FFFFFF"></path><path d="M0 271.7L0 326.6L61.5 308.6Z" fill="#a4bfdf" stroke="#FFFFFF"></path><path d="M0 271.7L61.5 308.6L73.5 250.7Z" fill="#abc3e1" stroke="#FFFFFF"></path><path d="M282.7 85.9L287.7 154.8L322.3 130.9Z" fill="#bfd0e6" stroke="#FFFFFF"></path><path d="M102.1 184.8L77.1 206.8L165.6 216.8Z" fill="#a4bfdf" stroke="#FFFFFF"></path><path d="M521.9 787.1L551.5 779.1L567.5 729.2Z" fill="#bfd0e6" stroke="#FFFFFF"></path><path d="M600 171.8L513.5 131.8L543.5 189.8Z" fill="#bfd0e6" stroke="#FFFFFF"></path><path d="M481.9 142.8L482.9 114.9L414.4 101.9Z" fill="#e5eaf1" stroke="#FFFFFF"></path><path d="M513.5 131.8L482.9 114.9L481.9 142.8Z" fill="#b8cce4" stroke="#FFFFFF"></path><path d="M0 577.4L0 627.3L56.5 637.3Z" fill="#cbd8ea" stroke="#FFFFFF"></path><path d="M326.3 856.1L351.3 786.1L273.7 814.1Z" fill="#abc3e1" stroke="#FFFFFF"></path><path d="M326.3 856.1L365.8 848.1L351.3 786.1Z" fill="#d8e1ed" stroke="#FFFFFF"></path><path d="M521.9 787.1L565.5 817.1L551.5 779.1Z" fill="#abc3e1" stroke="#FFFFFF"></path><path d="M102.1 184.8L69.5 202.8L77.1 206.8Z" fill="#b1c7e3" stroke="#FFFFFF"></path><path d="M77.1 206.8L69.5 202.8L73.5 250.7Z" fill="#abc3e1" stroke="#FFFFFF"></path><path d="M71.5 162.8L69.5 202.8L102.1 184.8Z" fill="#b1c7e3" stroke="#FFFFFF"></path><path d="M438.4 847.1L472.9 831.1L424.4 797.1Z" fill="#abc3e1" stroke="#FFFFFF"></path><path d="M351.3 26.9L282.7 85.9L372.8 96.9Z" fill="#dfe6ef" stroke="#FFFFFF"></path><path d="M372.8 96.9L282.7 85.9L322.3 130.9Z" fill="#d2ddec" stroke="#FFFFFF"></path><path d="M600 229.8L600 171.8L543.5 189.8Z" fill="#d8e1ed" stroke="#FFFFFF"></path><path d="M513.5 131.8L521.5 78.9L482.9 114.9Z" fill="#abc3e1" stroke="#FFFFFF"></path><path d="M261.7 870.1L326.3 856.1L273.7 814.1Z" fill="#dfe6ef" stroke="#FFFFFF"></path><path d="M365.8 848.1L438.4 847.1L424.4 797.1Z" fill="#bfd0e6" stroke="#FFFFFF"></path><path d="M411.8 900L438.4 847.1L365.8 848.1Z" fill="#cbd8ea" stroke="#FFFFFF"></path><path d="M28.5 746.2L93.1 676.2L63.5 656.2Z" fill="#d2ddec" stroke="#FFFFFF"></path><path d="M94.1 734.2L84.5 764.1L154.6 780.1Z" fill="#dfe6ef" stroke="#FFFFFF"></path><path d="M231.2 867.1L240.2 780.1L163.6 850.1Z" fill="#bfd0e6" stroke="#FFFFFF"></path><path d="M0 212.8L0 271.7L73.5 250.7Z" fill="#b1c7e3" stroke="#FFFFFF"></path><path d="M282.7 85.9L189.2 97.9L287.7 154.8Z" fill="#c5d4e8" stroke="#FFFFFF"></path><path d="M63.5 119.9L71.5 162.8L98.1 83.9Z" fill="#abc3e1" stroke="#FFFFFF"></path><path d="M0 627.3L0 671.2L56.5 637.3Z" fill="#c5d4e8" stroke="#FFFFFF"></path><path d="M565.5 817.1L521.9 787.1L472.9 831.1Z" fill="#e5eaf1" stroke="#FFFFFF"></path><path d="M565.5 817.1L600 780.1L551.5 779.1Z" fill="#c5d4e8" stroke="#FFFFFF"></path><path d="M551.5 779.1L600 780.1L567.5 729.2Z" fill="#cbd8ea" stroke="#FFFFFF"></path><path d="M28.5 746.2L93.1 788.1L84.5 764.1Z" fill="#a4bfdf" stroke="#FFFFFF"></path><path d="M84.5 764.1L93.1 788.1L154.6 780.1Z" fill="#b8cce4" stroke="#FFFFFF"></path><path d="M71.5 162.8L139.6 177.8L98.1 83.9Z" fill="#cbd8ea" stroke="#FFFFFF"></path><path d="M69.5 202.8L0 212.8L73.5 250.7Z" fill="#d8e1ed" stroke="#FFFFFF"></path><path d="M240.2 780.1L181.6 772.2L163.6 850.1Z" fill="#a4bfdf" stroke="#FFFFFF"></path><path d="M326.3 856.1L411.8 900L365.8 848.1Z" fill="#a4bfdf" stroke="#FFFFFF"></path><path d="M526.5 900L565.5 817.1L472.9 831.1Z" fill="#abc3e1" stroke="#FFFFFF"></path><path d="M163.6 850.1L181.6 772.2L154.6 780.1Z" fill="#e5eaf1" stroke="#FFFFFF"></path><path d="M0 671.2L28.5 746.2L63.5 656.2Z" fill="#d2ddec" stroke="#FFFFFF"></path><path d="M94.1 851.1L154.6 780.1L93.1 788.1Z" fill="#b8cce4" stroke="#FFFFFF"></path><path d="M94.1 851.1L163.6 850.1L154.6 780.1Z" fill="#b1c7e3" stroke="#FFFFFF"></path><path d="M500.9 37.9L414.4 26.9L414.4 101.9Z" fill="#d8e1ed" stroke="#FFFFFF"></path><path d="M414.4 101.9L391.8 33.9L372.8 96.9Z" fill="#a4bfdf" stroke="#FFFFFF"></path><path d="M527.5 80.9L521.5 78.9L513.5 131.8Z" fill="#dfe6ef" stroke="#FFFFFF"></path><path d="M600 104.9L527.5 80.9L513.5 131.8Z" fill="#d8e1ed" stroke="#FFFFFF"></path><path d="M71.5 162.8L0 212.8L69.5 202.8Z" fill="#abc3e1" stroke="#FFFFFF"></path><path d="M414.4 101.9L482.9 114.9L500.9 37.9Z" fill="#c5d4e8" stroke="#FFFFFF"></path><path d="M414.4 26.9L391.8 33.9L414.4 101.9Z" fill="#abc3e1" stroke="#FFFFFF"></path><path d="M282.7 85.9L246.2 21.9L189.2 97.9Z" fill="#bfd0e6" stroke="#FFFFFF"></path><path d="M292.7 900L294.3 900L261.7 870.1Z" fill="#abc3e1" stroke="#FFFFFF"></path><path d="M261.7 870.1L294.3 900L326.3 856.1Z" fill="#bfd0e6" stroke="#FFFFFF"></path><path d="M438.4 847.1L465.9 900L472.9 831.1Z" fill="#abc3e1" stroke="#FFFFFF"></path><path d="M292.7 900L261.7 870.1L212.2 900Z" fill="#abc3e1" stroke="#FFFFFF"></path><path d="M212.2 900L261.7 870.1L231.2 867.1Z" fill="#d8e1ed" stroke="#FFFFFF"></path><path d="M294.3 900L411.8 900L326.3 856.1Z" fill="#e5eaf1" stroke="#FFFFFF"></path><path d="M391.8 33.9L351.3 26.9L372.8 96.9Z" fill="#e5eaf1" stroke="#FFFFFF"></path><path d="M600 900L600 828.1L565.5 817.1Z" fill="#cbd8ea" stroke="#FFFFFF"></path><path d="M565.5 817.1L600 828.1L600 780.1Z" fill="#cbd8ea" stroke="#FFFFFF"></path><path d="M411.8 900L435.4 900L438.4 847.1Z" fill="#b8cce4" stroke="#FFFFFF"></path><path d="M600 171.8L600 104.9L513.5 131.8Z" fill="#e5eaf1" stroke="#FFFFFF"></path><path d="M500.9 37.9L482.9 114.9L521.5 78.9Z" fill="#a4bfdf" stroke="#FFFFFF"></path><path d="M500.9 37.9L521.5 78.9L527.5 80.9Z" fill="#abc3e1" stroke="#FFFFFF"></path><path d="M375.8 0L348.3 0L351.3 26.9Z" fill="#abc3e1" stroke="#FFFFFF"></path><path d="M98.1 83.9L173.6 135.9L189.2 97.9Z" fill="#bfd0e6" stroke="#FFFFFF"></path><path d="M98.1 83.9L139.6 177.8L173.6 135.9Z" fill="#b8cce4" stroke="#FFFFFF"></path><path d="M71.5 162.8L0 145.8L0 212.8Z" fill="#cbd8ea" stroke="#FFFFFF"></path><path d="M435.4 900L465.9 900L438.4 847.1Z" fill="#d2ddec" stroke="#FFFFFF"></path><path d="M0 671.2L0 756.2L28.5 746.2Z" fill="#dfe6ef" stroke="#FFFFFF"></path><path d="M28.5 746.2L53.5 844.1L93.1 788.1Z" fill="#d8e1ed" stroke="#FFFFFF"></path><path d="M163.6 900L212.2 900L163.6 850.1Z" fill="#c5d4e8" stroke="#FFFFFF"></path><path d="M163.6 850.1L212.2 900L231.2 867.1Z" fill="#c5d4e8" stroke="#FFFFFF"></path><path d="M246.2 21.9L251.7 22.9L239.7 0Z" fill="#cbd8ea" stroke="#FFFFFF"></path><path d="M351.3 26.9L251.7 22.9L282.7 85.9Z" fill="#e5eaf1" stroke="#FFFFFF"></path><path d="M348.3 0L251.7 22.9L351.3 26.9Z" fill="#dfe6ef" stroke="#FFFFFF"></path><path d="M251.7 22.9L246.2 21.9L282.7 85.9Z" fill="#bfd0e6" stroke="#FFFFFF"></path><path d="M127.1 36.9L98.1 83.9L189.2 97.9Z" fill="#b8cce4" stroke="#FFFFFF"></path><path d="M558.5 0L500.9 37.9L527.5 80.9Z" fill="#d8e1ed" stroke="#FFFFFF"></path><path d="M53.5 844.1L94.1 851.1L93.1 788.1Z" fill="#abc3e1" stroke="#FFFFFF"></path><path d="M246.2 21.9L184.6 29.9L189.2 97.9Z" fill="#d8e1ed" stroke="#FFFFFF"></path><path d="M375.8 0L351.3 26.9L391.8 33.9Z" fill="#e5eaf1" stroke="#FFFFFF"></path><path d="M246.2 21.9L216.2 0L184.6 29.9Z" fill="#d8e1ed" stroke="#FFFFFF"></path><path d="M375.8 0L391.8 33.9L414.4 26.9Z" fill="#a4bfdf" stroke="#FFFFFF"></path><path d="M430.4 0L375.8 0L414.4 26.9Z" fill="#e5eaf1" stroke="#FFFFFF"></path><path d="M465.9 900L526.5 900L472.9 831.1Z" fill="#dfe6ef" stroke="#FFFFFF"></path><path d="M137.1 900L163.6 900L163.6 850.1Z" fill="#dfe6ef" stroke="#FFFFFF"></path><path d="M0 87.9L0 145.8L63.5 119.9Z" fill="#d8e1ed" stroke="#FFFFFF"></path><path d="M63.5 119.9L0 145.8L71.5 162.8Z" fill="#d8e1ed" stroke="#FFFFFF"></path><path d="M467.9 0L430.4 0L414.4 26.9Z" fill="#c5d4e8" stroke="#FFFFFF"></path><path d="M0 826.1L53.5 844.1L28.5 746.2Z" fill="#cbd8ea" stroke="#FFFFFF"></path><path d="M94.1 851.1L137.1 900L163.6 850.1Z" fill="#d2ddec" stroke="#FFFFFF"></path><path d="M348.3 0L239.7 0L251.7 22.9Z" fill="#bfd0e6" stroke="#FFFFFF"></path><path d="M56.5 900L137.1 900L94.1 851.1Z" fill="#c5d4e8" stroke="#FFFFFF"></path><path d="M184.6 29.9L127.1 36.9L189.2 97.9Z" fill="#abc3e1" stroke="#FFFFFF"></path><path d="M98.1 83.9L28.5 77.9L63.5 119.9Z" fill="#dfe6ef" stroke="#FFFFFF"></path><path d="M158.6 0L127.1 36.9L184.6 29.9Z" fill="#b1c7e3" stroke="#FFFFFF"></path><path d="M558.5 0L467.9 0L500.9 37.9Z" fill="#c5d4e8" stroke="#FFFFFF"></path><path d="M500.9 37.9L467.9 0L414.4 26.9Z" fill="#bfd0e6" stroke="#FFFFFF"></path><path d="M239.7 0L216.2 0L246.2 21.9Z" fill="#abc3e1" stroke="#FFFFFF"></path><path d="M0 756.2L0 826.1L28.5 746.2Z" fill="#b1c7e3" stroke="#FFFFFF"></path><path d="M53.5 844.1L56.5 900L94.1 851.1Z" fill="#d8e1ed" stroke="#FFFFFF"></path><path d="M109.1 0L28.5 77.9L98.1 83.9Z" fill="#c5d4e8" stroke="#FFFFFF"></path><path d="M526.5 900L600 900L565.5 817.1Z" fill="#d2ddec" stroke="#FFFFFF"></path><path d="M216.2 0L158.6 0L184.6 29.9Z" fill="#a4bfdf" stroke="#FFFFFF"></path><path d="M127.1 36.9L109.1 0L98.1 83.9Z" fill="#c5d4e8" stroke="#FFFFFF"></path><path d="M600 104.9L600 26.9L527.5 80.9Z" fill="#dfe6ef" stroke="#FFFFFF"></path><path d="M28.5 77.9L0 87.9L63.5 119.9Z" fill="#b1c7e3" stroke="#FFFFFF"></path><path d="M0 39.9L0 87.9L28.5 77.9Z" fill="#dfe6ef" stroke="#FFFFFF"></path><path d="M600 26.9L558.5 0L527.5 80.9Z" fill="#bfd0e6" stroke="#FFFFFF"></path><path d="M0 864.1L56.5 900L53.5 844.1Z" fill="#abc3e1" stroke="#FFFFFF"></path><path d="M158.6 0L109.1 0L127.1 36.9Z" fill="#dfe6ef" stroke="#FFFFFF"></path><path d="M0 826.1L0 864.1L53.5 844.1Z" fill="#dfe6ef" stroke="#FFFFFF"></path><path d="M600 26.9L600 0L558.5 0Z" fill="#abc3e1" stroke="#FFFFFF"></path><path d="M22.5 0L0 39.9L28.5 77.9Z" fill="#cbd8ea" stroke="#FFFFFF"></path><path d="M0 864.1L0 900L56.5 900Z" fill="#d8e1ed" stroke="#FFFFFF"></path><path d="M109.1 0L22.5 0L28.5 77.9Z" fill="#bfd0e6" stroke="#FFFFFF"></path><path d="M22.5 0L0 0L0 39.9Z" fill="#d2ddec" stroke="#FFFFFF"></path></g></svg>