<svg id="visual" viewBox="0 0 675 900" width="675" height="900" xmlns="http://www.w3.org/2000/svg" xmlns:xlink="http://www.w3.org/1999/xlink" version="1.1"><g stroke-width="1" stroke-linejoin="bevel"><path d="M369.2 427L402.5 387L386.2 392Z" fill="#d8e1ed" stroke="#FFFFFF"></path><path d="M369.2 427L423.5 484L402.5 387Z" fill="#d2ddec" stroke="#FFFFFF"></path><path d="M369.2 427L393.2 487L423.5 484Z" fill="#e5eaf1" stroke="#FFFFFF"></path><path d="M508.9 395L451.5 341L402.5 387Z" fill="#d8e1ed" stroke="#FFFFFF"></path><path d="M402.5 387L369.2 311L386.2 392Z" fill="#cbd8ea" stroke="#FFFFFF"></path><path d="M369.2 427L338.8 496L393.2 487Z" fill="#abc3e1" stroke="#FFFFFF"></path><path d="M393.2 487L404.5 571L423.5 484Z" fill="#dfe6ef" stroke="#FFFFFF"></path><path d="M338.8 496L347.2 507L393.2 487Z" fill="#b1c7e3" stroke="#FFFFFF"></path><path d="M423.5 484L508.9 395L402.5 387Z" fill="#b1c7e3" stroke="#FFFFFF"></path><path d="M508.9 395L501.9 360L451.5 341Z" fill="#abc3e1" stroke="#FFFFFF"></path><path d="M451.5 341L369.2 311L402.5 387Z" fill="#d2ddec" stroke="#FFFFFF"></path><path d="M313.8 338L282.8 407L369.2 427Z" fill="#d2ddec" stroke="#FFFFFF"></path><path d="M369.2 427L269.5 429L338.8 496Z" fill="#a4bfdf" stroke="#FFFFFF"></path><path d="M433.5 574L489.9 503L423.5 484Z" fill="#c5d4e8" stroke="#FFFFFF"></path><path d="M423.5 484L489.9 503L508.9 395Z" fill="#bfd0e6" stroke="#FFFFFF"></path><path d="M501.9 360L456.5 315L451.5 341Z" fill="#abc3e1" stroke="#FFFFFF"></path><path d="M451.5 341L456.5 315L369.2 311Z" fill="#cbd8ea" stroke="#FFFFFF"></path><path d="M313.8 338L369.2 427L386.2 392Z" fill="#a4bfdf" stroke="#FFFFFF"></path><path d="M369.2 311L313.8 338L386.2 392Z" fill="#b8cce4" stroke="#FFFFFF"></path><path d="M313.8 338L274.5 390L282.8 407Z" fill="#abc3e1" stroke="#FFFFFF"></path><path d="M274.5 390L269.5 429L282.8 407Z" fill="#abc3e1" stroke="#FFFFFF"></path><path d="M282.8 407L269.5 429L369.2 427Z" fill="#e5eaf1" stroke="#FFFFFF"></path><path d="M338.8 496L280.8 535L347.2 507Z" fill="#d2ddec" stroke="#FFFFFF"></path><path d="M371.2 599L404.5 571L347.2 507Z" fill="#b8cce4" stroke="#FFFFFF"></path><path d="M347.2 507L404.5 571L393.2 487Z" fill="#e5eaf1" stroke="#FFFFFF"></path><path d="M558.3 491L557.3 409L508.9 395Z" fill="#c5d4e8" stroke="#FFFFFF"></path><path d="M508.9 395L580.3 384L501.9 360Z" fill="#d8e1ed" stroke="#FFFFFF"></path><path d="M550.3 264L458.9 277L456.5 315Z" fill="#d2ddec" stroke="#FFFFFF"></path><path d="M404.5 571L433.5 574L423.5 484Z" fill="#e5eaf1" stroke="#FFFFFF"></path><path d="M433.5 574L496.9 547L489.9 503Z" fill="#bfd0e6" stroke="#FFFFFF"></path><path d="M489.9 503L558.3 491L508.9 395Z" fill="#d2ddec" stroke="#FFFFFF"></path><path d="M461.5 267L458.9 277L550.3 264Z" fill="#d8e1ed" stroke="#FFFFFF"></path><path d="M456.5 315L458.9 277L369.2 311Z" fill="#e5eaf1" stroke="#FFFFFF"></path><path d="M496.9 547L534.3 508L489.9 503Z" fill="#bfd0e6" stroke="#FFFFFF"></path><path d="M359.2 209L318.8 291L369.2 311Z" fill="#b1c7e3" stroke="#FFFFFF"></path><path d="M369.2 311L318.8 291L313.8 338Z" fill="#cbd8ea" stroke="#FFFFFF"></path><path d="M313.8 338L260.5 295L274.5 390Z" fill="#c5d4e8" stroke="#FFFFFF"></path><path d="M550.3 264L456.5 315L501.9 360Z" fill="#b8cce4" stroke="#FFFFFF"></path><path d="M458.9 277L372.2 208L369.2 311Z" fill="#cbd8ea" stroke="#FFFFFF"></path><path d="M252.5 517L280.8 535L338.8 496Z" fill="#abc3e1" stroke="#FFFFFF"></path><path d="M609.6 565L558.3 491L534.3 508Z" fill="#b8cce4" stroke="#FFFFFF"></path><path d="M534.3 508L558.3 491L489.9 503Z" fill="#cbd8ea" stroke="#FFFFFF"></path><path d="M269.5 429L252.5 517L338.8 496Z" fill="#b8cce4" stroke="#FFFFFF"></path><path d="M217.5 506L252.5 517L269.5 429Z" fill="#dfe6ef" stroke="#FFFFFF"></path><path d="M283.8 585L347.2 507L280.8 535Z" fill="#b1c7e3" stroke="#FFFFFF"></path><path d="M283.8 585L371.2 599L347.2 507Z" fill="#b1c7e3" stroke="#FFFFFF"></path><path d="M404.5 571L407.5 658L433.5 574Z" fill="#abc3e1" stroke="#FFFFFF"></path><path d="M589.6 435L580.3 384L557.3 409Z" fill="#d2ddec" stroke="#FFFFFF"></path><path d="M557.3 409L580.3 384L508.9 395Z" fill="#a4bfdf" stroke="#FFFFFF"></path><path d="M359.2 209L298.8 272L318.8 291Z" fill="#abc3e1" stroke="#FFFFFF"></path><path d="M318.8 291L260.5 295L313.8 338Z" fill="#d8e1ed" stroke="#FFFFFF"></path><path d="M558.3 491L589.6 435L557.3 409Z" fill="#dfe6ef" stroke="#FFFFFF"></path><path d="M433.5 574L463.9 605L496.9 547Z" fill="#c5d4e8" stroke="#FFFFFF"></path><path d="M496.9 547L571.3 596L534.3 508Z" fill="#b8cce4" stroke="#FFFFFF"></path><path d="M407.5 658L463.9 605L433.5 574Z" fill="#cbd8ea" stroke="#FFFFFF"></path><path d="M298.8 272L260.5 295L318.8 291Z" fill="#bfd0e6" stroke="#FFFFFF"></path><path d="M198.1 364L202.1 449L269.5 429Z" fill="#d2ddec" stroke="#FFFFFF"></path><path d="M622.6 373L570.3 314L580.3 384Z" fill="#b1c7e3" stroke="#FFFFFF"></path><path d="M580.3 384L570.3 314L501.9 360Z" fill="#bfd0e6" stroke="#FFFFFF"></path><path d="M215.5 573L283.8 585L280.8 535Z" fill="#a4bfdf" stroke="#FFFFFF"></path><path d="M198.1 364L269.5 429L274.5 390Z" fill="#d8e1ed" stroke="#FFFFFF"></path><path d="M252.5 517L215.5 573L280.8 535Z" fill="#d2ddec" stroke="#FFFFFF"></path><path d="M202.1 449L217.5 506L269.5 429Z" fill="#bfd0e6" stroke="#FFFFFF"></path><path d="M260.5 295L198.1 364L274.5 390Z" fill="#e5eaf1" stroke="#FFFFFF"></path><path d="M570.3 314L550.3 264L501.9 360Z" fill="#d8e1ed" stroke="#FFFFFF"></path><path d="M461.5 267L372.2 208L458.9 277Z" fill="#dfe6ef" stroke="#FFFFFF"></path><path d="M550.3 264L507.9 233L461.5 267Z" fill="#c5d4e8" stroke="#FFFFFF"></path><path d="M402.5 182L372.2 208L461.5 267Z" fill="#b8cce4" stroke="#FFFFFF"></path><path d="M273.5 211L209.1 272L260.5 295Z" fill="#bfd0e6" stroke="#FFFFFF"></path><path d="M372.2 208L359.2 209L369.2 311Z" fill="#b1c7e3" stroke="#FFFFFF"></path><path d="M558.3 491L622.6 461L589.6 435Z" fill="#d2ddec" stroke="#FFFFFF"></path><path d="M589.6 435L622.6 373L580.3 384Z" fill="#abc3e1" stroke="#FFFFFF"></path><path d="M609.6 565L622.6 461L558.3 491Z" fill="#d8e1ed" stroke="#FFFFFF"></path><path d="M622.6 461L622.6 373L589.6 435Z" fill="#bfd0e6" stroke="#FFFFFF"></path><path d="M570.3 314L617.6 311L550.3 264Z" fill="#cbd8ea" stroke="#FFFFFF"></path><path d="M167.1 472L201.1 538L217.5 506Z" fill="#d8e1ed" stroke="#FFFFFF"></path><path d="M217.5 506L201.1 538L252.5 517Z" fill="#c5d4e8" stroke="#FFFFFF"></path><path d="M167.1 472L217.5 506L202.1 449Z" fill="#abc3e1" stroke="#FFFFFF"></path><path d="M282.8 639L371.2 599L283.8 585Z" fill="#dfe6ef" stroke="#FFFFFF"></path><path d="M395.2 683L407.5 658L371.2 599Z" fill="#d8e1ed" stroke="#FFFFFF"></path><path d="M371.2 599L407.5 658L404.5 571Z" fill="#c5d4e8" stroke="#FFFFFF"></path><path d="M463.9 605L571.3 596L496.9 547Z" fill="#bfd0e6" stroke="#FFFFFF"></path><path d="M507.9 233L402.5 182L461.5 267Z" fill="#b8cce4" stroke="#FFFFFF"></path><path d="M372.2 208L402.5 182L359.2 209Z" fill="#cbd8ea" stroke="#FFFFFF"></path><path d="M622.6 373L617.6 311L570.3 314Z" fill="#e5eaf1" stroke="#FFFFFF"></path><path d="M536.3 166L510.9 166L507.9 233Z" fill="#cbd8ea" stroke="#FFFFFF"></path><path d="M592.6 632L571.3 596L517.9 685Z" fill="#d8e1ed" stroke="#FFFFFF"></path><path d="M201.1 538L215.5 573L252.5 517Z" fill="#cbd8ea" stroke="#FFFFFF"></path><path d="M149.7 450L167.1 472L202.1 449Z" fill="#abc3e1" stroke="#FFFFFF"></path><path d="M201.1 538L180.1 589L215.5 573Z" fill="#bfd0e6" stroke="#FFFFFF"></path><path d="M273.5 211L260.5 295L298.8 272Z" fill="#b8cce4" stroke="#FFFFFF"></path><path d="M260.5 295L209.1 272L198.1 364Z" fill="#a4bfdf" stroke="#FFFFFF"></path><path d="M198.1 364L149.7 450L202.1 449Z" fill="#a4bfdf" stroke="#FFFFFF"></path><path d="M273.5 211L298.8 272L313.8 185Z" fill="#e5eaf1" stroke="#FFFFFF"></path><path d="M245.5 635L282.8 639L283.8 585Z" fill="#a4bfdf" stroke="#FFFFFF"></path><path d="M313.8 185L298.8 272L359.2 209Z" fill="#e5eaf1" stroke="#FFFFFF"></path><path d="M571.3 596L609.6 565L534.3 508Z" fill="#c5d4e8" stroke="#FFFFFF"></path><path d="M325.8 139L313.8 185L359.2 209Z" fill="#e5eaf1" stroke="#FFFFFF"></path><path d="M125.7 349L149.7 450L198.1 364Z" fill="#d2ddec" stroke="#FFFFFF"></path><path d="M100.7 526L180.1 589L201.1 538Z" fill="#bfd0e6" stroke="#FFFFFF"></path><path d="M282.8 639L395.2 683L371.2 599Z" fill="#bfd0e6" stroke="#FFFFFF"></path><path d="M407.5 658L434.5 687L463.9 605Z" fill="#dfe6ef" stroke="#FFFFFF"></path><path d="M215.5 573L245.5 635L283.8 585Z" fill="#b1c7e3" stroke="#FFFFFF"></path><path d="M308.8 738L375.2 743L395.2 683Z" fill="#abc3e1" stroke="#FFFFFF"></path><path d="M180.1 589L245.5 635L215.5 573Z" fill="#a4bfdf" stroke="#FFFFFF"></path><path d="M395.2 683L434.5 687L407.5 658Z" fill="#bfd0e6" stroke="#FFFFFF"></path><path d="M675 485L675 439L622.6 461Z" fill="#abc3e1" stroke="#FFFFFF"></path><path d="M622.6 461L675 439L622.6 373Z" fill="#b1c7e3" stroke="#FFFFFF"></path><path d="M622.6 373L675 357L617.6 311Z" fill="#b8cce4" stroke="#FFFFFF"></path><path d="M192.1 211L171.1 284L209.1 272Z" fill="#bfd0e6" stroke="#FFFFFF"></path><path d="M209.1 272L171.1 284L198.1 364Z" fill="#bfd0e6" stroke="#FFFFFF"></path><path d="M675 521L675 485L622.6 461Z" fill="#c5d4e8" stroke="#FFFFFF"></path><path d="M536.3 166L507.9 233L550.3 264Z" fill="#abc3e1" stroke="#FFFFFF"></path><path d="M507.9 233L510.9 166L402.5 182Z" fill="#bfd0e6" stroke="#FFFFFF"></path><path d="M402.5 182L325.8 139L359.2 209Z" fill="#bfd0e6" stroke="#FFFFFF"></path><path d="M675 439L675 357L622.6 373Z" fill="#bfd0e6" stroke="#FFFFFF"></path><path d="M635.6 249L536.3 166L550.3 264Z" fill="#b8cce4" stroke="#FFFFFF"></path><path d="M100.7 526L201.1 538L167.1 472Z" fill="#b8cce4" stroke="#FFFFFF"></path><path d="M571.3 596L611.6 630L609.6 565Z" fill="#abc3e1" stroke="#FFFFFF"></path><path d="M609.6 565L675 521L622.6 461Z" fill="#cbd8ea" stroke="#FFFFFF"></path><path d="M517.9 685L571.3 596L463.9 605Z" fill="#d2ddec" stroke="#FFFFFF"></path><path d="M434.5 687L517.9 685L463.9 605Z" fill="#e5eaf1" stroke="#FFFFFF"></path><path d="M675 574L675 521L609.6 565Z" fill="#e5eaf1" stroke="#FFFFFF"></path><path d="M171.1 284L125.7 349L198.1 364Z" fill="#a4bfdf" stroke="#FFFFFF"></path><path d="M149.7 450L96.7 496L167.1 472Z" fill="#abc3e1" stroke="#FFFFFF"></path><path d="M635.6 249L550.3 264L617.6 311Z" fill="#e5eaf1" stroke="#FFFFFF"></path><path d="M675 315L635.6 249L617.6 311Z" fill="#b1c7e3" stroke="#FFFFFF"></path><path d="M675 357L675 315L617.6 311Z" fill="#bfd0e6" stroke="#FFFFFF"></path><path d="M574.3 690L611.6 630L592.6 632Z" fill="#e5eaf1" stroke="#FFFFFF"></path><path d="M592.6 632L611.6 630L571.3 596Z" fill="#c5d4e8" stroke="#FFFFFF"></path><path d="M536.3 166L501.9 145L510.9 166Z" fill="#dfe6ef" stroke="#FFFFFF"></path><path d="M510.9 166L501.9 145L402.5 182Z" fill="#d2ddec" stroke="#FFFFFF"></path><path d="M313.8 185L248.5 171L273.5 211Z" fill="#b8cce4" stroke="#FFFFFF"></path><path d="M273.5 211L192.1 211L209.1 272Z" fill="#dfe6ef" stroke="#FFFFFF"></path><path d="M343.2 91L325.8 139L402.5 182Z" fill="#bfd0e6" stroke="#FFFFFF"></path><path d="M251.5 137L248.5 171L313.8 185Z" fill="#dfe6ef" stroke="#FFFFFF"></path><path d="M171.1 284L96.7 320L125.7 349Z" fill="#e5eaf1" stroke="#FFFFFF"></path><path d="M248.5 171L192.1 211L273.5 211Z" fill="#c5d4e8" stroke="#FFFFFF"></path><path d="M509.9 737L558.3 691L517.9 685Z" fill="#b8cce4" stroke="#FFFFFF"></path><path d="M517.9 685L558.3 691L592.6 632Z" fill="#b8cce4" stroke="#FFFFFF"></path><path d="M675 649L675 574L611.6 630Z" fill="#bfd0e6" stroke="#FFFFFF"></path><path d="M611.6 630L675 574L609.6 565Z" fill="#cbd8ea" stroke="#FFFFFF"></path><path d="M165.1 667L255.5 701L245.5 635Z" fill="#abc3e1" stroke="#FFFFFF"></path><path d="M245.5 635L255.5 701L282.8 639Z" fill="#dfe6ef" stroke="#FFFFFF"></path><path d="M395.2 683L398.2 754L434.5 687Z" fill="#b1c7e3" stroke="#FFFFFF"></path><path d="M434.5 687L509.9 737L517.9 685Z" fill="#cbd8ea" stroke="#FFFFFF"></path><path d="M77.4 450L96.7 496L149.7 450Z" fill="#d8e1ed" stroke="#FFFFFF"></path><path d="M180.1 589L165.1 667L245.5 635Z" fill="#abc3e1" stroke="#FFFFFF"></path><path d="M558.3 691L574.3 690L592.6 632Z" fill="#cbd8ea" stroke="#FFFFFF"></path><path d="M96.7 496L100.7 526L167.1 472Z" fill="#d8e1ed" stroke="#FFFFFF"></path><path d="M308.8 738L395.2 683L282.8 639Z" fill="#cbd8ea" stroke="#FFFFFF"></path><path d="M558.3 691L611.6 749L574.3 690Z" fill="#b8cce4" stroke="#FFFFFF"></path><path d="M482.9 87L457.5 103L501.9 145Z" fill="#c5d4e8" stroke="#FFFFFF"></path><path d="M501.9 145L457.5 103L402.5 182Z" fill="#d2ddec" stroke="#FFFFFF"></path><path d="M325.8 139L251.5 137L313.8 185Z" fill="#b8cce4" stroke="#FFFFFF"></path><path d="M248.5 171L171.1 122L192.1 211Z" fill="#c5d4e8" stroke="#FFFFFF"></path><path d="M319.8 68L251.5 137L325.8 139Z" fill="#c5d4e8" stroke="#FFFFFF"></path><path d="M125.7 349L80.4 434L149.7 450Z" fill="#dfe6ef" stroke="#FFFFFF"></path><path d="M0 495L70.4 571L100.7 526Z" fill="#d2ddec" stroke="#FFFFFF"></path><path d="M59.4 350L80.4 434L125.7 349Z" fill="#d2ddec" stroke="#FFFFFF"></path><path d="M59.4 350L96.7 320L62.4 319Z" fill="#b1c7e3" stroke="#FFFFFF"></path><path d="M86.4 269L96.7 320L171.1 284Z" fill="#dfe6ef" stroke="#FFFFFF"></path><path d="M0 391L77.4 450L80.4 434Z" fill="#b1c7e3" stroke="#FFFFFF"></path><path d="M80.4 434L77.4 450L149.7 450Z" fill="#cbd8ea" stroke="#FFFFFF"></path><path d="M255.5 701L308.8 738L282.8 639Z" fill="#e5eaf1" stroke="#FFFFFF"></path><path d="M353.2 812L398.2 754L375.2 743Z" fill="#a4bfdf" stroke="#FFFFFF"></path><path d="M375.2 743L398.2 754L395.2 683Z" fill="#d2ddec" stroke="#FFFFFF"></path><path d="M484.9 780L509.9 737L434.5 687Z" fill="#a4bfdf" stroke="#FFFFFF"></path><path d="M100.7 526L134.7 617L180.1 589Z" fill="#abc3e1" stroke="#FFFFFF"></path><path d="M417.5 81L343.2 91L402.5 182Z" fill="#d8e1ed" stroke="#FFFFFF"></path><path d="M457.5 103L417.5 81L402.5 182Z" fill="#b8cce4" stroke="#FFFFFF"></path><path d="M134.7 617L165.1 667L180.1 589Z" fill="#c5d4e8" stroke="#FFFFFF"></path><path d="M248.5 768L322.8 788L308.8 738Z" fill="#d2ddec" stroke="#FFFFFF"></path><path d="M577.3 109L501.9 145L536.3 166Z" fill="#dfe6ef" stroke="#FFFFFF"></path><path d="M572.3 86L482.9 87L501.9 145Z" fill="#b8cce4" stroke="#FFFFFF"></path><path d="M457.5 103L482.9 87L417.5 81Z" fill="#cbd8ea" stroke="#FFFFFF"></path><path d="M675 315L675 208L635.6 249Z" fill="#dfe6ef" stroke="#FFFFFF"></path><path d="M635.6 249L626.6 153L536.3 166Z" fill="#c5d4e8" stroke="#FFFFFF"></path><path d="M675 199L626.6 153L635.6 249Z" fill="#d2ddec" stroke="#FFFFFF"></path><path d="M675 208L675 199L635.6 249Z" fill="#bfd0e6" stroke="#FFFFFF"></path><path d="M86.4 269L171.1 284L120.7 209Z" fill="#d8e1ed" stroke="#FFFFFF"></path><path d="M96.7 320L59.4 350L125.7 349Z" fill="#c5d4e8" stroke="#FFFFFF"></path><path d="M675 696L675 649L611.6 630Z" fill="#a4bfdf" stroke="#FFFFFF"></path><path d="M675 696L611.6 630L574.3 690Z" fill="#bfd0e6" stroke="#FFFFFF"></path><path d="M120.7 209L171.1 284L192.1 211Z" fill="#d8e1ed" stroke="#FFFFFF"></path><path d="M111.7 163L120.7 209L192.1 211Z" fill="#b8cce4" stroke="#FFFFFF"></path><path d="M86.4 269L62.4 319L96.7 320Z" fill="#dfe6ef" stroke="#FFFFFF"></path><path d="M598.6 115L577.3 109L536.3 166Z" fill="#b1c7e3" stroke="#FFFFFF"></path><path d="M49.4 683L153.7 679L134.7 617Z" fill="#bfd0e6" stroke="#FFFFFF"></path><path d="M134.7 617L153.7 679L165.1 667Z" fill="#b1c7e3" stroke="#FFFFFF"></path><path d="M165.1 667L156.1 699L255.5 701Z" fill="#d2ddec" stroke="#FFFFFF"></path><path d="M626.6 153L598.6 115L536.3 166Z" fill="#dfe6ef" stroke="#FFFFFF"></path><path d="M675 136L598.6 115L626.6 153Z" fill="#a4bfdf" stroke="#FFFFFF"></path><path d="M343.2 91L319.8 68L325.8 139Z" fill="#cbd8ea" stroke="#FFFFFF"></path><path d="M251.5 137L171.1 122L248.5 171Z" fill="#b8cce4" stroke="#FFFFFF"></path><path d="M382.2 33L319.8 68L343.2 91Z" fill="#b8cce4" stroke="#FFFFFF"></path><path d="M382.2 33L343.2 91L417.5 81Z" fill="#cbd8ea" stroke="#FFFFFF"></path><path d="M100.7 526L70.4 571L134.7 617Z" fill="#d2ddec" stroke="#FFFFFF"></path><path d="M0 495L100.7 526L96.7 496Z" fill="#a4bfdf" stroke="#FFFFFF"></path><path d="M0 495L96.7 496L77.4 450Z" fill="#e5eaf1" stroke="#FFFFFF"></path><path d="M398.2 754L484.9 780L434.5 687Z" fill="#d8e1ed" stroke="#FFFFFF"></path><path d="M611.6 749L675 696L574.3 690Z" fill="#a4bfdf" stroke="#FFFFFF"></path><path d="M417.5 802L484.9 780L398.2 754Z" fill="#c5d4e8" stroke="#FFFFFF"></path><path d="M63.4 730L156.1 699L153.7 679Z" fill="#dfe6ef" stroke="#FFFFFF"></path><path d="M153.7 679L156.1 699L165.1 667Z" fill="#dfe6ef" stroke="#FFFFFF"></path><path d="M248.5 768L308.8 738L255.5 701Z" fill="#d2ddec" stroke="#FFFFFF"></path><path d="M308.8 738L322.8 788L375.2 743Z" fill="#b8cce4" stroke="#FFFFFF"></path><path d="M577.3 109L572.3 86L501.9 145Z" fill="#d8e1ed" stroke="#FFFFFF"></path><path d="M457.9 0L382.2 33L417.5 81Z" fill="#cbd8ea" stroke="#FFFFFF"></path><path d="M598.6 115L572.3 86L577.3 109Z" fill="#d2ddec" stroke="#FFFFFF"></path><path d="M208.1 781L248.5 768L255.5 701Z" fill="#b1c7e3" stroke="#FFFFFF"></path><path d="M353.2 812L417.5 802L398.2 754Z" fill="#b8cce4" stroke="#FFFFFF"></path><path d="M206.1 50L171.1 122L251.5 137Z" fill="#b1c7e3" stroke="#FFFFFF"></path><path d="M70.4 571L64.4 600L134.7 617Z" fill="#b1c7e3" stroke="#FFFFFF"></path><path d="M0 555L64.4 600L70.4 571Z" fill="#e5eaf1" stroke="#FFFFFF"></path><path d="M611.6 749L558.3 691L509.9 737Z" fill="#c5d4e8" stroke="#FFFFFF"></path><path d="M568.3 795L509.9 737L484.9 780Z" fill="#abc3e1" stroke="#FFFFFF"></path><path d="M568.3 795L611.6 749L509.9 737Z" fill="#dfe6ef" stroke="#FFFFFF"></path><path d="M359.2 0L382.2 33L457.9 0Z" fill="#e5eaf1" stroke="#FFFFFF"></path><path d="M319.8 68L253.5 49L251.5 137Z" fill="#b8cce4" stroke="#FFFFFF"></path><path d="M171.1 122L111.7 163L192.1 211Z" fill="#d8e1ed" stroke="#FFFFFF"></path><path d="M120.7 209L61.4 191L86.4 269Z" fill="#dfe6ef" stroke="#FFFFFF"></path><path d="M0 370L59.4 350L62.4 319Z" fill="#d2ddec" stroke="#FFFFFF"></path><path d="M322.8 788L353.2 812L375.2 743Z" fill="#cbd8ea" stroke="#FFFFFF"></path><path d="M336.8 854L353.2 812L322.8 788Z" fill="#c5d4e8" stroke="#FFFFFF"></path><path d="M675 199L675 136L626.6 153Z" fill="#a4bfdf" stroke="#FFFFFF"></path><path d="M598.6 115L645.6 36L572.3 86Z" fill="#d8e1ed" stroke="#FFFFFF"></path><path d="M314.8 0L253.5 49L319.8 68Z" fill="#d8e1ed" stroke="#FFFFFF"></path><path d="M98.7 127L61.4 191L111.7 163Z" fill="#a4bfdf" stroke="#FFFFFF"></path><path d="M0 370L0 391L59.4 350Z" fill="#a4bfdf" stroke="#FFFFFF"></path><path d="M59.4 350L0 391L80.4 434Z" fill="#b1c7e3" stroke="#FFFFFF"></path><path d="M0 370L62.4 319L0 271Z" fill="#dfe6ef" stroke="#FFFFFF"></path><path d="M582.3 829L568.3 795L462.9 866Z" fill="#abc3e1" stroke="#FFFFFF"></path><path d="M611.6 749L675 805L675 696Z" fill="#d8e1ed" stroke="#FFFFFF"></path><path d="M428.5 849L484.9 780L417.5 802Z" fill="#d2ddec" stroke="#FFFFFF"></path><path d="M0 271L62.4 319L86.4 269Z" fill="#abc3e1" stroke="#FFFFFF"></path><path d="M156.1 699L208.1 781L255.5 701Z" fill="#b8cce4" stroke="#FFFFFF"></path><path d="M214.5 859L336.8 854L322.8 788Z" fill="#d8e1ed" stroke="#FFFFFF"></path><path d="M153.7 748L208.1 781L156.1 699Z" fill="#cbd8ea" stroke="#FFFFFF"></path><path d="M73.4 752L153.7 748L156.1 699Z" fill="#b1c7e3" stroke="#FFFFFF"></path><path d="M0 391L0 495L77.4 450Z" fill="#b1c7e3" stroke="#FFFFFF"></path><path d="M64.4 600L49.4 683L134.7 617Z" fill="#d8e1ed" stroke="#FFFFFF"></path><path d="M98.7 127L111.7 163L171.1 122Z" fill="#b1c7e3" stroke="#FFFFFF"></path><path d="M111.7 163L61.4 191L120.7 209Z" fill="#b8cce4" stroke="#FFFFFF"></path><path d="M568.3 795L614.6 783L611.6 749Z" fill="#d8e1ed" stroke="#FFFFFF"></path><path d="M253.5 0L206.1 50L253.5 49Z" fill="#d2ddec" stroke="#FFFFFF"></path><path d="M253.5 49L206.1 50L251.5 137Z" fill="#bfd0e6" stroke="#FFFFFF"></path><path d="M457.9 0L417.5 81L482.9 87Z" fill="#d8e1ed" stroke="#FFFFFF"></path><path d="M382.2 33L359.2 0L319.8 68Z" fill="#abc3e1" stroke="#FFFFFF"></path><path d="M125.7 46L98.7 127L171.1 122Z" fill="#b1c7e3" stroke="#FFFFFF"></path><path d="M0 495L0 555L70.4 571Z" fill="#b1c7e3" stroke="#FFFFFF"></path><path d="M460.5 0L457.9 0L482.9 87Z" fill="#d2ddec" stroke="#FFFFFF"></path><path d="M460.5 0L482.9 87L524.3 0Z" fill="#c5d4e8" stroke="#FFFFFF"></path><path d="M524.3 0L482.9 87L572.3 86Z" fill="#a4bfdf" stroke="#FFFFFF"></path><path d="M336.8 854L428.5 849L353.2 812Z" fill="#d8e1ed" stroke="#FFFFFF"></path><path d="M353.2 812L428.5 849L417.5 802Z" fill="#d8e1ed" stroke="#FFFFFF"></path><path d="M568.3 795L582.3 829L614.6 783Z" fill="#abc3e1" stroke="#FFFFFF"></path><path d="M0 216L86.4 269L61.4 191Z" fill="#b1c7e3" stroke="#FFFFFF"></path><path d="M0 216L0 271L86.4 269Z" fill="#b1c7e3" stroke="#FFFFFF"></path><path d="M359.2 0L314.8 0L319.8 68Z" fill="#c5d4e8" stroke="#FFFFFF"></path><path d="M214.5 859L322.8 788L248.5 768Z" fill="#a4bfdf" stroke="#FFFFFF"></path><path d="M591.6 0L524.3 0L572.3 86Z" fill="#b1c7e3" stroke="#FFFFFF"></path><path d="M0 639L49.4 683L64.4 600Z" fill="#a4bfdf" stroke="#FFFFFF"></path><path d="M462.9 866L568.3 795L484.9 780Z" fill="#dfe6ef" stroke="#FFFFFF"></path><path d="M428.5 900L462.9 866L428.5 849Z" fill="#a4bfdf" stroke="#FFFFFF"></path><path d="M428.5 849L462.9 866L484.9 780Z" fill="#b8cce4" stroke="#FFFFFF"></path><path d="M0 555L0 614L64.4 600Z" fill="#bfd0e6" stroke="#FFFFFF"></path><path d="M314.8 0L253.5 0L253.5 49Z" fill="#a4bfdf" stroke="#FFFFFF"></path><path d="M58.4 51L47.4 129L98.7 127Z" fill="#b8cce4" stroke="#FFFFFF"></path><path d="M0 152L0 216L61.4 191Z" fill="#b1c7e3" stroke="#FFFFFF"></path><path d="M675 45L645.6 36L598.6 115Z" fill="#c5d4e8" stroke="#FFFFFF"></path><path d="M153.7 748L137.7 794L208.1 781Z" fill="#e5eaf1" stroke="#FFFFFF"></path><path d="M208.1 781L214.5 859L248.5 768Z" fill="#bfd0e6" stroke="#FFFFFF"></path><path d="M73.4 752L137.7 794L153.7 748Z" fill="#d8e1ed" stroke="#FFFFFF"></path><path d="M0 614L0 639L64.4 600Z" fill="#cbd8ea" stroke="#FFFFFF"></path><path d="M49.4 683L63.4 730L153.7 679Z" fill="#b8cce4" stroke="#FFFFFF"></path><path d="M0 747L63.4 730L49.4 683Z" fill="#d8e1ed" stroke="#FFFFFF"></path><path d="M645.6 36L591.6 0L572.3 86Z" fill="#cbd8ea" stroke="#FFFFFF"></path><path d="M125.7 46L171.1 122L206.1 50Z" fill="#b8cce4" stroke="#FFFFFF"></path><path d="M98.7 127L47.4 129L61.4 191Z" fill="#abc3e1" stroke="#FFFFFF"></path><path d="M675 136L675 45L598.6 115Z" fill="#e5eaf1" stroke="#FFFFFF"></path><path d="M645.6 36L675 0L591.6 0Z" fill="#b8cce4" stroke="#FFFFFF"></path><path d="M0 747L73.4 752L63.4 730Z" fill="#cbd8ea" stroke="#FFFFFF"></path><path d="M63.4 730L73.4 752L156.1 699Z" fill="#d8e1ed" stroke="#FFFFFF"></path><path d="M158.1 0L125.7 46L206.1 50Z" fill="#d8e1ed" stroke="#FFFFFF"></path><path d="M638.6 851L614.6 783L582.3 829Z" fill="#b8cce4" stroke="#FFFFFF"></path><path d="M638.6 851L675 805L614.6 783Z" fill="#d2ddec" stroke="#FFFFFF"></path><path d="M614.6 783L675 805L611.6 749Z" fill="#cbd8ea" stroke="#FFFFFF"></path><path d="M215.1 870L214.5 859L177.1 900Z" fill="#abc3e1" stroke="#FFFFFF"></path><path d="M137.7 794L214.5 859L208.1 781Z" fill="#bfd0e6" stroke="#FFFFFF"></path><path d="M348.2 900L428.5 900L428.5 849Z" fill="#abc3e1" stroke="#FFFFFF"></path><path d="M348.2 900L428.5 849L336.8 854Z" fill="#d8e1ed" stroke="#FFFFFF"></path><path d="M462.9 866L500.9 900L582.3 829Z" fill="#bfd0e6" stroke="#FFFFFF"></path><path d="M305.8 900L348.2 900L336.8 854Z" fill="#bfd0e6" stroke="#FFFFFF"></path><path d="M115.7 819L214.5 859L137.7 794Z" fill="#cbd8ea" stroke="#FFFFFF"></path><path d="M274.5 900L305.8 900L336.8 854Z" fill="#dfe6ef" stroke="#FFFFFF"></path><path d="M0 105L0 152L47.4 129Z" fill="#dfe6ef" stroke="#FFFFFF"></path><path d="M47.4 129L0 152L61.4 191Z" fill="#e5eaf1" stroke="#FFFFFF"></path><path d="M428.5 900L500.9 900L462.9 866Z" fill="#dfe6ef" stroke="#FFFFFF"></path><path d="M274.5 900L336.8 854L214.5 859Z" fill="#e5eaf1" stroke="#FFFFFF"></path><path d="M608.6 900L638.6 851L582.3 829Z" fill="#d2ddec" stroke="#FFFFFF"></path><path d="M253.5 0L158.1 0L206.1 50Z" fill="#dfe6ef" stroke="#FFFFFF"></path><path d="M125.7 46L58.4 51L98.7 127Z" fill="#b8cce4" stroke="#FFFFFF"></path><path d="M73.4 752L115.7 819L137.7 794Z" fill="#d8e1ed" stroke="#FFFFFF"></path><path d="M0 775L115.7 819L73.4 752Z" fill="#d2ddec" stroke="#FFFFFF"></path><path d="M215.1 870L274.5 900L214.5 859Z" fill="#c5d4e8" stroke="#FFFFFF"></path><path d="M158.1 0L140.7 0L125.7 46Z" fill="#bfd0e6" stroke="#FFFFFF"></path><path d="M500.9 900L551.3 900L582.3 829Z" fill="#dfe6ef" stroke="#FFFFFF"></path><path d="M675 45L675 0L645.6 36Z" fill="#b1c7e3" stroke="#FFFFFF"></path><path d="M675 900L675 851L638.6 851Z" fill="#cbd8ea" stroke="#FFFFFF"></path><path d="M638.6 851L675 851L675 805Z" fill="#bfd0e6" stroke="#FFFFFF"></path><path d="M71.4 0L58.4 51L125.7 46Z" fill="#d8e1ed" stroke="#FFFFFF"></path><path d="M58.4 51L0 105L47.4 129Z" fill="#bfd0e6" stroke="#FFFFFF"></path><path d="M0 639L0 747L49.4 683Z" fill="#b8cce4" stroke="#FFFFFF"></path><path d="M551.3 900L608.6 900L582.3 829Z" fill="#a4bfdf" stroke="#FFFFFF"></path><path d="M145.7 900L177.1 900L214.5 859Z" fill="#dfe6ef" stroke="#FFFFFF"></path><path d="M215.1 870L177.1 900L274.5 900Z" fill="#c5d4e8" stroke="#FFFFFF"></path><path d="M145.7 900L214.5 859L115.7 819Z" fill="#d8e1ed" stroke="#FFFFFF"></path><path d="M0 747L0 775L73.4 752Z" fill="#cbd8ea" stroke="#FFFFFF"></path><path d="M140.7 0L71.4 0L125.7 46Z" fill="#b1c7e3" stroke="#FFFFFF"></path><path d="M58.4 51L0 49L0 105Z" fill="#d2ddec" stroke="#FFFFFF"></path><path d="M91.4 872L145.7 900L115.7 819Z" fill="#b1c7e3" stroke="#FFFFFF"></path><path d="M0 854L91.4 872L115.7 819Z" fill="#e5eaf1" stroke="#FFFFFF"></path><path d="M608.6 900L675 900L638.6 851Z" fill="#d2ddec" stroke="#FFFFFF"></path><path d="M0 0L0 49L58.4 51Z" fill="#cbd8ea" stroke="#FFFFFF"></path><path d="M0 900L90.4 900L91.4 872Z" fill="#d2ddec" stroke="#FFFFFF"></path><path d="M91.4 872L90.4 900L145.7 900Z" fill="#c5d4e8" stroke="#FFFFFF"></path><path d="M71.4 0L0 0L58.4 51Z" fill="#dfe6ef" stroke="#FFFFFF"></path><path d="M0 775L0 854L115.7 819Z" fill="#d2ddec" stroke="#FFFFFF"></path><path d="M0 854L0 900L91.4 872Z" fill="#abc3e1" stroke="#FFFFFF"></path></g></svg>