<svg width="872" height="349" viewBox="0 0 872 349" fill="none" xmlns="http://www.w3.org/2000/svg">
<g clip-path="url(#clip0)">
<rect width="872" height="349" transform="translate(872 349) rotate(180)" fill="white"/>
<path d="M895.002 -8.99991L906 323.826L391.056 414.254C215.272 441.148 -186.733 435.947 -50.516 261.534C81.5 92.5 723.026 157.04 895.002 -8.99991Z" fill="url(#paint0_linear)"/>
<path d="M891.466 55.0001L896 372.639C573.197 457.554 -117.712 397.073 -25.5 303C247 25 590 191 891.466 55.0001Z" fill="url(#paint1_linear)"/>
<path d="M882 114L878.984 365.42C567.85 417.511 -99.5822 491.579 -2.5 353C249 -6.00002 599.034 185.477 882 114Z" fill="url(#paint2_linear)"/>
</g>
<defs>
<linearGradient id="paint0_linear" x1="67.1194" y1="277.926" x2="1102.57" y2="104.997" gradientUnits="userSpaceOnUse">
<stop stop-color="#B3FBE9"/>
<stop offset="1" stop-color="#B3FBE9"/>
</linearGradient>
<linearGradient id="paint1_linear" x1="23.3438" y1="328.924" x2="916.309" y2="125.711" gradientUnits="userSpaceOnUse">
<stop stop-color="#88E6EC" stop-opacity="0.82"/>
<stop offset="1" stop-color="#75ECF3" stop-opacity="0.76"/>
</linearGradient>
<linearGradient id="paint2_linear" x1="126.5" y1="194.5" x2="866.956" y2="344.187" gradientUnits="userSpaceOnUse">
<stop stop-color="#47D3F2" stop-opacity="0.53"/>
<stop offset="0.491393" stop-color="#9CDBEF" stop-opacity="0.81"/>
<stop offset="1" stop-color="#54C1FF" stop-opacity="0.54"/>
</linearGradient>
<clipPath id="clip0">
<rect width="872" height="349" fill="white" transform="translate(872 349) rotate(180)"/>
</clipPath>
</defs>
</svg>
