<svg id="visual" viewBox="0 0 900 675" width="900" height="675" xmlns="http://www.w3.org/2000/svg" xmlns:xlink="http://www.w3.org/1999/xlink" version="1.1"><g stroke-width="1" stroke-linejoin="bevel"><path d="M462.9 282L552.7 239L472.9 228Z" fill="#e5eaf1" stroke="#FFFFFF"></path><path d="M462.9 282L571.7 302L552.7 239Z" fill="#b1c7e3" stroke="#FFFFFF"></path><path d="M552.7 239L494.9 171L472.9 228Z" fill="#bfd0e6" stroke="#FFFFFF"></path><path d="M494.9 171L437.1 194L472.9 228Z" fill="#bfd0e6" stroke="#FFFFFF"></path><path d="M472.9 228L402.1 297L462.9 282Z" fill="#a4bfdf" stroke="#FFFFFF"></path><path d="M437.1 194L402.1 297L472.9 228Z" fill="#a4bfdf" stroke="#FFFFFF"></path><path d="M516.9 404L572.7 370L571.7 302Z" fill="#abc3e1" stroke="#FFFFFF"></path><path d="M516.9 404L571.7 302L462.9 282Z" fill="#d2ddec" stroke="#FFFFFF"></path><path d="M494.9 171L434.1 150L437.1 194Z" fill="#d8e1ed" stroke="#FFFFFF"></path><path d="M437.1 194L350.3 293L402.1 297Z" fill="#dfe6ef" stroke="#FFFFFF"></path><path d="M671.5 182L546.7 128L552.7 239Z" fill="#e5eaf1" stroke="#FFFFFF"></path><path d="M552.7 239L546.7 128L494.9 171Z" fill="#a4bfdf" stroke="#FFFFFF"></path><path d="M494.9 171L503.9 50L434.1 150Z" fill="#d2ddec" stroke="#FFFFFF"></path><path d="M387.1 382L516.9 404L462.9 282Z" fill="#dfe6ef" stroke="#FFFFFF"></path><path d="M651.5 374L653.5 295L571.7 302Z" fill="#e5eaf1" stroke="#FFFFFF"></path><path d="M571.7 302L660.5 237L552.7 239Z" fill="#a4bfdf" stroke="#FFFFFF"></path><path d="M653.5 295L660.5 237L571.7 302Z" fill="#a4bfdf" stroke="#FFFFFF"></path><path d="M320.3 177L350.3 293L437.1 194Z" fill="#b8cce4" stroke="#FFFFFF"></path><path d="M402.1 297L387.1 382L462.9 282Z" fill="#abc3e1" stroke="#FFFFFF"></path><path d="M350.3 293L387.1 382L402.1 297Z" fill="#a4bfdf" stroke="#FFFFFF"></path><path d="M572.7 370L651.5 374L571.7 302Z" fill="#b8cce4" stroke="#FFFFFF"></path><path d="M768.4 286L757.4 199L660.5 237Z" fill="#bfd0e6" stroke="#FFFFFF"></path><path d="M565.7 439L651.5 374L572.7 370Z" fill="#c5d4e8" stroke="#FFFFFF"></path><path d="M757.4 199L671.5 182L660.5 237Z" fill="#dfe6ef" stroke="#FFFFFF"></path><path d="M660.5 237L671.5 182L552.7 239Z" fill="#d8e1ed" stroke="#FFFFFF"></path><path d="M460.9 461L565.7 439L516.9 404Z" fill="#abc3e1" stroke="#FFFFFF"></path><path d="M516.9 404L565.7 439L572.7 370Z" fill="#d2ddec" stroke="#FFFFFF"></path><path d="M427.1 455L460.9 461L516.9 404Z" fill="#d8e1ed" stroke="#FFFFFF"></path><path d="M434.1 150L320.3 177L437.1 194Z" fill="#a4bfdf" stroke="#FFFFFF"></path><path d="M387.1 382L427.1 455L516.9 404Z" fill="#b1c7e3" stroke="#FFFFFF"></path><path d="M350.3 293L334.3 381L387.1 382Z" fill="#b8cce4" stroke="#FFFFFF"></path><path d="M387.1 382L302.3 457L427.1 455Z" fill="#cbd8ea" stroke="#FFFFFF"></path><path d="M251.5 314L334.3 381L350.3 293Z" fill="#e5eaf1" stroke="#FFFFFF"></path><path d="M602.7 51L503.9 50L546.7 128Z" fill="#d8e1ed" stroke="#FFFFFF"></path><path d="M546.7 128L503.9 50L494.9 171Z" fill="#d8e1ed" stroke="#FFFFFF"></path><path d="M434.1 150L316.3 85L320.3 177Z" fill="#abc3e1" stroke="#FFFFFF"></path><path d="M320.3 177L294.3 246L350.3 293Z" fill="#abc3e1" stroke="#FFFFFF"></path><path d="M651.5 71L602.7 51L546.7 128Z" fill="#bfd0e6" stroke="#FFFFFF"></path><path d="M578.7 505L631.5 464L565.7 439Z" fill="#b1c7e3" stroke="#FFFFFF"></path><path d="M565.7 439L631.5 464L651.5 374Z" fill="#bfd0e6" stroke="#FFFFFF"></path><path d="M671.5 182L651.5 71L546.7 128Z" fill="#d8e1ed" stroke="#FFFFFF"></path><path d="M503.9 50L392.1 52L434.1 150Z" fill="#a4bfdf" stroke="#FFFFFF"></path><path d="M722.4 478L734.4 356L651.5 374Z" fill="#b1c7e3" stroke="#FFFFFF"></path><path d="M651.5 374L734.4 356L653.5 295Z" fill="#c5d4e8" stroke="#FFFFFF"></path><path d="M671.5 182L729.4 67L651.5 71Z" fill="#b1c7e3" stroke="#FFFFFF"></path><path d="M427.1 455L428.1 494L460.9 461Z" fill="#a4bfdf" stroke="#FFFFFF"></path><path d="M460.9 461L578.7 505L565.7 439Z" fill="#d2ddec" stroke="#FFFFFF"></path><path d="M313.3 497L428.1 494L427.1 455Z" fill="#a4bfdf" stroke="#FFFFFF"></path><path d="M478.9 546L578.7 505L460.9 461Z" fill="#abc3e1" stroke="#FFFFFF"></path><path d="M768.4 286L660.5 237L653.5 295Z" fill="#abc3e1" stroke="#FFFFFF"></path><path d="M224.5 161L251.5 223L320.3 177Z" fill="#cbd8ea" stroke="#FFFFFF"></path><path d="M320.3 177L251.5 223L294.3 246Z" fill="#e5eaf1" stroke="#FFFFFF"></path><path d="M294.3 246L251.5 314L350.3 293Z" fill="#d2ddec" stroke="#FFFFFF"></path><path d="M734.4 356L768.4 286L653.5 295Z" fill="#b1c7e3" stroke="#FFFFFF"></path><path d="M392.1 52L316.3 85L434.1 150Z" fill="#cbd8ea" stroke="#FFFFFF"></path><path d="M251.5 223L251.5 314L294.3 246Z" fill="#cbd8ea" stroke="#FFFFFF"></path><path d="M334.3 381L302.3 457L387.1 382Z" fill="#abc3e1" stroke="#FFFFFF"></path><path d="M590.7 0L466.9 0L503.9 50Z" fill="#d2ddec" stroke="#FFFFFF"></path><path d="M503.9 50L466.9 0L392.1 52Z" fill="#b8cce4" stroke="#FFFFFF"></path><path d="M392.1 52L341.3 0L316.3 85Z" fill="#dfe6ef" stroke="#FFFFFF"></path><path d="M466.9 0L429.1 0L392.1 52Z" fill="#b8cce4" stroke="#FFFFFF"></path><path d="M643.5 0L590.7 0L602.7 51Z" fill="#dfe6ef" stroke="#FFFFFF"></path><path d="M602.7 51L590.7 0L503.9 50Z" fill="#cbd8ea" stroke="#FFFFFF"></path><path d="M275.5 448L302.3 457L334.3 381Z" fill="#b1c7e3" stroke="#FFFFFF"></path><path d="M381.1 622L478.9 546L428.1 494Z" fill="#cbd8ea" stroke="#FFFFFF"></path><path d="M428.1 494L478.9 546L460.9 461Z" fill="#d8e1ed" stroke="#FFFFFF"></path><path d="M849.2 165L760.4 118L757.4 199Z" fill="#c5d4e8" stroke="#FFFFFF"></path><path d="M757.4 199L760.4 118L671.5 182Z" fill="#abc3e1" stroke="#FFFFFF"></path><path d="M651.5 71L643.5 0L602.7 51Z" fill="#d8e1ed" stroke="#FFFFFF"></path><path d="M734.4 356L801.2 298L768.4 286Z" fill="#d8e1ed" stroke="#FFFFFF"></path><path d="M768.4 286L844.2 254L757.4 199Z" fill="#a4bfdf" stroke="#FFFFFF"></path><path d="M809.2 377L801.2 298L734.4 356Z" fill="#abc3e1" stroke="#FFFFFF"></path><path d="M760.4 118L729.4 67L671.5 182Z" fill="#a4bfdf" stroke="#FFFFFF"></path><path d="M729.4 67L643.5 0L651.5 71Z" fill="#b1c7e3" stroke="#FFFFFF"></path><path d="M218.5 360L275.5 448L334.3 381Z" fill="#b1c7e3" stroke="#FFFFFF"></path><path d="M302.3 457L313.3 497L427.1 455Z" fill="#e5eaf1" stroke="#FFFFFF"></path><path d="M316.3 85L224.5 161L320.3 177Z" fill="#b8cce4" stroke="#FFFFFF"></path><path d="M192.6 294L218.5 360L251.5 314Z" fill="#a4bfdf" stroke="#FFFFFF"></path><path d="M681.5 526L722.4 478L631.5 464Z" fill="#a4bfdf" stroke="#FFFFFF"></path><path d="M631.5 464L722.4 478L651.5 374Z" fill="#cbd8ea" stroke="#FFFFFF"></path><path d="M681.5 526L631.5 464L578.7 505Z" fill="#cbd8ea" stroke="#FFFFFF"></path><path d="M275.5 448L313.3 497L302.3 457Z" fill="#cbd8ea" stroke="#FFFFFF"></path><path d="M192.6 294L251.5 314L251.5 223Z" fill="#a4bfdf" stroke="#FFFFFF"></path><path d="M251.5 314L218.5 360L334.3 381Z" fill="#bfd0e6" stroke="#FFFFFF"></path><path d="M429.1 0L341.3 0L392.1 52Z" fill="#b1c7e3" stroke="#FFFFFF"></path><path d="M316.3 85L216.5 103L224.5 161Z" fill="#a4bfdf" stroke="#FFFFFF"></path><path d="M660.5 574L681.5 526L578.7 505Z" fill="#b8cce4" stroke="#FFFFFF"></path><path d="M135.6 211L192.6 294L251.5 223Z" fill="#dfe6ef" stroke="#FFFFFF"></path><path d="M827.2 457L809.2 377L722.4 478Z" fill="#a4bfdf" stroke="#FFFFFF"></path><path d="M722.4 478L809.2 377L734.4 356Z" fill="#d2ddec" stroke="#FFFFFF"></path><path d="M225.5 0L216.5 103L316.3 85Z" fill="#b1c7e3" stroke="#FFFFFF"></path><path d="M224.5 161L171.6 167L251.5 223Z" fill="#d2ddec" stroke="#FFFFFF"></path><path d="M440.1 675L519.9 596L478.9 546Z" fill="#b8cce4" stroke="#FFFFFF"></path><path d="M478.9 546L519.9 596L578.7 505Z" fill="#bfd0e6" stroke="#FFFFFF"></path><path d="M900 299L844.2 254L801.2 298Z" fill="#a4bfdf" stroke="#FFFFFF"></path><path d="M801.2 298L844.2 254L768.4 286Z" fill="#dfe6ef" stroke="#FFFFFF"></path><path d="M787.2 0L742.4 0L729.4 67Z" fill="#c5d4e8" stroke="#FFFFFF"></path><path d="M681.5 526L760.4 499L722.4 478Z" fill="#d2ddec" stroke="#FFFFFF"></path><path d="M708.4 613L760.4 499L681.5 526Z" fill="#bfd0e6" stroke="#FFFFFF"></path><path d="M546.7 628L660.5 574L578.7 505Z" fill="#dfe6ef" stroke="#FFFFFF"></path><path d="M81.8 384L180.6 375L192.6 294Z" fill="#cbd8ea" stroke="#FFFFFF"></path><path d="M192.6 294L180.6 375L218.5 360Z" fill="#d8e1ed" stroke="#FFFFFF"></path><path d="M218.5 360L187.6 472L275.5 448Z" fill="#dfe6ef" stroke="#FFFFFF"></path><path d="M275.5 448L266.5 528L313.3 497Z" fill="#cbd8ea" stroke="#FFFFFF"></path><path d="M216.5 103L171.6 167L224.5 161Z" fill="#c5d4e8" stroke="#FFFFFF"></path><path d="M787.2 0L729.4 67L840.2 51Z" fill="#bfd0e6" stroke="#FFFFFF"></path><path d="M729.4 67L742.4 0L643.5 0Z" fill="#b8cce4" stroke="#FFFFFF"></path><path d="M844.2 254L849.2 165L757.4 199Z" fill="#d2ddec" stroke="#FFFFFF"></path><path d="M187.6 472L266.5 528L275.5 448Z" fill="#a4bfdf" stroke="#FFFFFF"></path><path d="M332.3 610L381.1 622L428.1 494Z" fill="#b1c7e3" stroke="#FFFFFF"></path><path d="M519.9 596L546.7 628L578.7 505Z" fill="#b1c7e3" stroke="#FFFFFF"></path><path d="M492.9 675L546.7 628L519.9 596Z" fill="#abc3e1" stroke="#FFFFFF"></path><path d="M845.2 495L827.2 457L760.4 499Z" fill="#b8cce4" stroke="#FFFFFF"></path><path d="M760.4 499L827.2 457L722.4 478Z" fill="#b8cce4" stroke="#FFFFFF"></path><path d="M809.2 377L900 299L801.2 298Z" fill="#cbd8ea" stroke="#FFFFFF"></path><path d="M69.8 176L135.6 211L171.6 167Z" fill="#d2ddec" stroke="#FFFFFF"></path><path d="M171.6 167L135.6 211L251.5 223Z" fill="#b1c7e3" stroke="#FFFFFF"></path><path d="M332.3 610L428.1 494L313.3 497Z" fill="#dfe6ef" stroke="#FFFFFF"></path><path d="M840.2 51L729.4 67L760.4 118Z" fill="#e5eaf1" stroke="#FFFFFF"></path><path d="M180.6 375L187.6 472L218.5 360Z" fill="#dfe6ef" stroke="#FFFFFF"></path><path d="M266.5 528L332.3 610L313.3 497Z" fill="#b1c7e3" stroke="#FFFFFF"></path><path d="M107.8 432L187.6 472L180.6 375Z" fill="#d2ddec" stroke="#FFFFFF"></path><path d="M341.3 0L225.5 0L316.3 85Z" fill="#dfe6ef" stroke="#FFFFFF"></path><path d="M216.5 103L134.6 81L171.6 167Z" fill="#b1c7e3" stroke="#FFFFFF"></path><path d="M272.5 612L332.3 610L266.5 528Z" fill="#c5d4e8" stroke="#FFFFFF"></path><path d="M900 367L900 299L809.2 377Z" fill="#e5eaf1" stroke="#FFFFFF"></path><path d="M844.2 254L900 220L849.2 165Z" fill="#d8e1ed" stroke="#FFFFFF"></path><path d="M849.2 165L840.2 51L760.4 118Z" fill="#abc3e1" stroke="#FFFFFF"></path><path d="M900 100L840.2 51L849.2 165Z" fill="#a4bfdf" stroke="#FFFFFF"></path><path d="M900 299L900 220L844.2 254Z" fill="#cbd8ea" stroke="#FFFFFF"></path><path d="M684.5 675L708.4 613L660.5 574Z" fill="#d2ddec" stroke="#FFFFFF"></path><path d="M660.5 574L708.4 613L681.5 526Z" fill="#dfe6ef" stroke="#FFFFFF"></path><path d="M900 451L900 367L827.2 457Z" fill="#bfd0e6" stroke="#FFFFFF"></path><path d="M827.2 457L900 367L809.2 377Z" fill="#cbd8ea" stroke="#FFFFFF"></path><path d="M837.2 598L845.2 495L760.4 499Z" fill="#b1c7e3" stroke="#FFFFFF"></path><path d="M440.1 675L478.9 546L381.1 622Z" fill="#cbd8ea" stroke="#FFFFFF"></path><path d="M440.1 675L492.9 675L519.9 596Z" fill="#d8e1ed" stroke="#FFFFFF"></path><path d="M546.7 628L581.7 675L660.5 574Z" fill="#bfd0e6" stroke="#FFFFFF"></path><path d="M153.6 0L134.6 81L216.5 103Z" fill="#c5d4e8" stroke="#FFFFFF"></path><path d="M900 220L900 119L849.2 165Z" fill="#abc3e1" stroke="#FFFFFF"></path><path d="M328.3 675L440.1 675L381.1 622Z" fill="#b8cce4" stroke="#FFFFFF"></path><path d="M492.9 675L581.7 675L546.7 628Z" fill="#c5d4e8" stroke="#FFFFFF"></path><path d="M178.6 586L272.5 612L266.5 528Z" fill="#b1c7e3" stroke="#FFFFFF"></path><path d="M332.3 610L328.3 675L381.1 622Z" fill="#cbd8ea" stroke="#FFFFFF"></path><path d="M900 119L900 100L849.2 165Z" fill="#d2ddec" stroke="#FFFFFF"></path><path d="M840.2 51L900 0L787.2 0Z" fill="#e5eaf1" stroke="#FFFFFF"></path><path d="M69.8 176L81.8 231L135.6 211Z" fill="#b1c7e3" stroke="#FFFFFF"></path><path d="M135.6 211L81.8 231L192.6 294Z" fill="#b8cce4" stroke="#FFFFFF"></path><path d="M900 551L900 451L845.2 495Z" fill="#a4bfdf" stroke="#FFFFFF"></path><path d="M845.2 495L900 451L827.2 457Z" fill="#c5d4e8" stroke="#FFFFFF"></path><path d="M81.8 384L107.8 432L180.6 375Z" fill="#cbd8ea" stroke="#FFFFFF"></path><path d="M187.6 472L178.6 586L266.5 528Z" fill="#a4bfdf" stroke="#FFFFFF"></path><path d="M134.6 81L99.8 98L171.6 167Z" fill="#e5eaf1" stroke="#FFFFFF"></path><path d="M91.8 0L99.8 98L134.6 81Z" fill="#dfe6ef" stroke="#FFFFFF"></path><path d="M225.5 0L153.6 0L216.5 103Z" fill="#d8e1ed" stroke="#FFFFFF"></path><path d="M53.8 270L81.8 384L192.6 294Z" fill="#d2ddec" stroke="#FFFFFF"></path><path d="M99.8 98L69.8 176L171.6 167Z" fill="#abc3e1" stroke="#FFFFFF"></path><path d="M81.8 231L53.8 270L192.6 294Z" fill="#b8cce4" stroke="#FFFFFF"></path><path d="M581.7 675L684.5 675L660.5 574Z" fill="#d2ddec" stroke="#FFFFFF"></path><path d="M708.4 613L837.2 598L760.4 499Z" fill="#b8cce4" stroke="#FFFFFF"></path><path d="M262.5 675L328.3 675L272.5 612Z" fill="#b8cce4" stroke="#FFFFFF"></path><path d="M272.5 612L328.3 675L332.3 610Z" fill="#cbd8ea" stroke="#FFFFFF"></path><path d="M0 208L53.8 270L81.8 231Z" fill="#d8e1ed" stroke="#FFFFFF"></path><path d="M131.6 555L178.6 586L187.6 472Z" fill="#a4bfdf" stroke="#FFFFFF"></path><path d="M131.6 555L187.6 472L107.8 432Z" fill="#d8e1ed" stroke="#FFFFFF"></path><path d="M787.2 675L837.2 598L708.4 613Z" fill="#d8e1ed" stroke="#FFFFFF"></path><path d="M684.5 675L735.4 675L708.4 613Z" fill="#e5eaf1" stroke="#FFFFFF"></path><path d="M900 100L900 0L840.2 51Z" fill="#bfd0e6" stroke="#FFFFFF"></path><path d="M82.8 539L131.6 555L107.8 432Z" fill="#b8cce4" stroke="#FFFFFF"></path><path d="M189.6 675L272.5 612L178.6 586Z" fill="#d2ddec" stroke="#FFFFFF"></path><path d="M189.6 675L262.5 675L272.5 612Z" fill="#dfe6ef" stroke="#FFFFFF"></path><path d="M900 632L900 551L837.2 598Z" fill="#b8cce4" stroke="#FFFFFF"></path><path d="M837.2 598L900 551L845.2 495Z" fill="#b8cce4" stroke="#FFFFFF"></path><path d="M153.6 0L91.8 0L134.6 81Z" fill="#a4bfdf" stroke="#FFFFFF"></path><path d="M0 173L0 208L69.8 176Z" fill="#b8cce4" stroke="#FFFFFF"></path><path d="M0 208L0 302L53.8 270Z" fill="#c5d4e8" stroke="#FFFFFF"></path><path d="M735.4 675L787.2 675L708.4 613Z" fill="#abc3e1" stroke="#FFFFFF"></path><path d="M0 426L82.8 539L107.8 432Z" fill="#c5d4e8" stroke="#FFFFFF"></path><path d="M105.8 595L189.6 675L178.6 586Z" fill="#e5eaf1" stroke="#FFFFFF"></path><path d="M0 426L107.8 432L81.8 384Z" fill="#a4bfdf" stroke="#FFFFFF"></path><path d="M0 208L81.8 231L69.8 176Z" fill="#abc3e1" stroke="#FFFFFF"></path><path d="M53.8 270L0 355L81.8 384Z" fill="#abc3e1" stroke="#FFFFFF"></path><path d="M0 173L69.8 176L0 105Z" fill="#b8cce4" stroke="#FFFFFF"></path><path d="M0 105L69.8 176L99.8 98Z" fill="#abc3e1" stroke="#FFFFFF"></path><path d="M0 302L0 355L53.8 270Z" fill="#cbd8ea" stroke="#FFFFFF"></path><path d="M105.8 595L178.6 586L131.6 555Z" fill="#cbd8ea" stroke="#FFFFFF"></path><path d="M0 552L105.8 595L82.8 539Z" fill="#d2ddec" stroke="#FFFFFF"></path><path d="M82.8 539L105.8 595L131.6 555Z" fill="#d8e1ed" stroke="#FFFFFF"></path><path d="M91.8 0L0 105L99.8 98Z" fill="#dfe6ef" stroke="#FFFFFF"></path><path d="M0 355L0 426L81.8 384Z" fill="#c5d4e8" stroke="#FFFFFF"></path><path d="M900 675L900 632L837.2 598Z" fill="#d8e1ed" stroke="#FFFFFF"></path><path d="M787.2 675L900 675L837.2 598Z" fill="#cbd8ea" stroke="#FFFFFF"></path><path d="M91.8 0L0 0L0 105Z" fill="#abc3e1" stroke="#FFFFFF"></path><path d="M0 426L0 552L82.8 539Z" fill="#b1c7e3" stroke="#FFFFFF"></path><path d="M105.8 595L84.8 675L189.6 675Z" fill="#d8e1ed" stroke="#FFFFFF"></path><path d="M0 629L84.8 675L105.8 595Z" fill="#bfd0e6" stroke="#FFFFFF"></path><path d="M0 552L0 629L105.8 595Z" fill="#e5eaf1" stroke="#FFFFFF"></path><path d="M0 629L0 675L84.8 675Z" fill="#e5eaf1" stroke="#FFFFFF"></path></g></svg>