<svg width="400" height="300" viewBox="0 0 400 300" fill="none" xmlns="http://www.w3.org/2000/svg">
<rect width="400" height="300" fill="white"/>
<path d="M0 300L400 0V100L0 300Z" fill="url(#paint0_linear)" fill-opacity="0.5"/>
<path d="M0 300V0H400L0 300Z" fill="url(#paint1_linear)" fill-opacity="0.5"/>
<path d="M0 300V0H250L0 300Z" fill="url(#paint2_linear)" fill-opacity="0.5"/>
<path d="M0 150V0H400L0 150Z" fill="url(#paint3_linear)" fill-opacity="0.5"/>
<path d="M0 300V0L174 213L0 300Z" fill="url(#paint4_linear)" fill-opacity="0.5"/>
<defs>
<linearGradient id="paint0_linear" x1="396" y1="25.5" x2="145.727" y2="397.929" gradientUnits="userSpaceOnUse">
<stop stop-color="#71FFE5" stop-opacity="0.68"/>
<stop offset="1" stop-color="#26D8FF" stop-opacity="0.46"/>
</linearGradient>
<linearGradient id="paint1_linear" x1="400" y1="0" x2="1.42071e-05" y2="159" gradientUnits="userSpaceOnUse">
<stop offset="0.015662" stop-color="#00D1FF" stop-opacity="0.73"/>
<stop offset="1" stop-color="#92FEEB" stop-opacity="0.95"/>
</linearGradient>
<linearGradient id="paint2_linear" x1="125" y1="3.10441e-06" x2="5.2154e-07" y2="300" gradientUnits="userSpaceOnUse">
<stop stop-color="#9BDCEB" stop-opacity="0.54"/>
<stop offset="1" stop-color="#6EE5FF" stop-opacity="0.54"/>
</linearGradient>
<linearGradient id="paint3_linear" x1="400" y1="-2.25504e-05" x2="-54" y2="79" gradientUnits="userSpaceOnUse">
<stop offset="0.0311757" stop-color="#80FEE8" stop-opacity="0.68"/>
<stop offset="1" stop-color="#6DDCFF" stop-opacity="0.94"/>
</linearGradient>
<linearGradient id="paint4_linear" x1="131" y1="48.5" x2="106.808" y2="309.966" gradientUnits="userSpaceOnUse">
<stop stop-color="white" stop-opacity="0.29"/>
<stop offset="1" stop-color="white" stop-opacity="0.35"/>
</linearGradient>
</defs>
</svg>
