<svg width="400" height="300" viewBox="0 0 400 300" fill="none" xmlns="http://www.w3.org/2000/svg">
<rect width="400" height="300" fill="white"/>
<path d="M0 300L400 0V100L0 300Z" fill="url(#paint0_linear)" fill-opacity="0.5"/>
<path d="M0 300V0H400L0 300Z" fill="url(#paint1_linear)" fill-opacity="0.5"/>
<path d="M0 300V0H250L0 300Z" fill="url(#paint2_linear)" fill-opacity="0.5"/>
<path d="M0 150V0H400L0 150Z" fill="url(#paint3_linear)" fill-opacity="0.5"/>
<path d="M0 300V0L174 213L0 300Z" fill="url(#paint4_linear)" fill-opacity="0.5"/>
<path d="M0 50V300L400 100V50H0Z" fill="url(#paint5_linear)"/>
<defs>
<linearGradient id="paint0_linear" x1="400" y1="9.15598e-06" x2="154.911" y2="395.9" gradientUnits="userSpaceOnUse">
<stop stop-color="#00CFFD" stop-opacity="0.78"/>
<stop offset="0.554201" stop-color="#2EB69D" stop-opacity="0.68"/>
<stop offset="1" stop-color="#00D1FF"/>
</linearGradient>
<linearGradient id="paint1_linear" x1="400" y1="0" x2="1.42071e-05" y2="159" gradientUnits="userSpaceOnUse">
<stop offset="0.015662" stop-color="#2094FF" stop-opacity="0.89"/>
<stop offset="1" stop-color="#2DC0A6" stop-opacity="0.95"/>
</linearGradient>
<linearGradient id="paint2_linear" x1="125" y1="3.10441e-06" x2="5.2154e-07" y2="300" gradientUnits="userSpaceOnUse">
<stop stop-color="#95FFD2"/>
<stop offset="1" stop-color="#192EEE" stop-opacity="0.7"/>
</linearGradient>
<linearGradient id="paint3_linear" x1="400" y1="-2.25504e-05" x2="-54" y2="79" gradientUnits="userSpaceOnUse">
<stop offset="0.0311757" stop-color="#34FCD9" stop-opacity="0.64"/>
<stop offset="1" stop-color="#3DBDE6" stop-opacity="0.94"/>
</linearGradient>
<linearGradient id="paint4_linear" x1="110.5" y1="170" x2="20" y2="268.5" gradientUnits="userSpaceOnUse">
<stop stop-color="#3ADCFF" stop-opacity="0.85"/>
<stop offset="1" stop-color="#5CFFC4" stop-opacity="0.85"/>
</linearGradient>
<linearGradient id="paint5_linear" x1="206.5" y1="50" x2="208" y2="300" gradientUnits="userSpaceOnUse">
<stop stop-color="white" stop-opacity="0"/>
<stop offset="1" stop-color="white" stop-opacity="0.55"/>
</linearGradient>
</defs>
</svg>
