<svg width="400" height="300" viewBox="0 0 400 300" fill="none" xmlns="http://www.w3.org/2000/svg">
<rect width="400" height="300" fill="white"/>
<path d="M0 300L400 0V100L0 300Z" fill="url(#paint0_linear)" fill-opacity="0.5"/>
<path d="M0 300V0H400L0 300Z" fill="url(#paint1_linear)" fill-opacity="0.5"/>
<path d="M0 300V0H250L0 300Z" fill="url(#paint2_linear)" fill-opacity="0.5"/>
<path d="M0 100V0H400L0 100Z" fill="url(#paint3_linear)" fill-opacity="0.5"/>
<path d="M0 300V0L174 213L0 300Z" fill="url(#paint4_linear)" fill-opacity="0.5"/>
<path d="M0 0V300L400 100V0H0Z" fill="url(#paint5_linear)"/>
<defs>
<linearGradient id="paint0_linear" x1="400" y1="9.15598e-06" x2="154.911" y2="395.9" gradientUnits="userSpaceOnUse">
<stop stop-color="#00CFFD"/>
<stop offset="0.40625" stop-color="#2EB69D"/>
<stop offset="1" stop-color="#00D1FF"/>
</linearGradient>
<linearGradient id="paint1_linear" x1="400" y1="0" x2="1.42071e-05" y2="159" gradientUnits="userSpaceOnUse">
<stop offset="0.015662" stop-color="#006BCD" stop-opacity="0.89"/>
<stop offset="1" stop-color="#005A4A" stop-opacity="0.95"/>
</linearGradient>
<linearGradient id="paint2_linear" x1="125" y1="3.10441e-06" x2="5.2154e-07" y2="300" gradientUnits="userSpaceOnUse">
<stop stop-color="#95FFD2"/>
<stop offset="1" stop-color="#192EEE" stop-opacity="0.7"/>
</linearGradient>
<linearGradient id="paint3_linear" x1="400" y1="-1.50336e-05" x2="-37.9127" y2="114.301" gradientUnits="userSpaceOnUse">
<stop offset="0.0311757" stop-color="#34FCD9" stop-opacity="0.64"/>
<stop offset="1" stop-color="#3DBDE6" stop-opacity="0.94"/>
</linearGradient>
<linearGradient id="paint4_linear" x1="110.5" y1="170" x2="20" y2="268.5" gradientUnits="userSpaceOnUse">
<stop stop-color="#3ADCFF" stop-opacity="0.85"/>
<stop offset="1" stop-color="#5CFFC4" stop-opacity="0.85"/>
</linearGradient>
<linearGradient id="paint5_linear" x1="186" y1="-31.5" x2="194.973" y2="282.972" gradientUnits="userSpaceOnUse">
<stop stop-color="#8A15FF" stop-opacity="0.25"/>
<stop offset="1" stop-color="white" stop-opacity="0.47"/>
</linearGradient>
</defs>
</svg>
