<svg width="872" height="311" viewBox="0 0 872 311" fill="none" xmlns="http://www.w3.org/2000/svg">
<g clip-path="url(#clip0)">
<rect width="872" height="311" transform="translate(872 311) rotate(-180)" fill="white"/>
<path d="M895 27L906 303.074L390.983 378.082C215.174 400.39 -179.367 401.604 -50.6522 251.404C76.3016 103.258 675.5 124 895 27Z" fill="url(#paint0_linear)"/>
<path d="M884.5 59.4999L889 338.988C568.606 413.705 -73.4892 341.264 -24.5 288.5C248.93 -6 611 140 884.5 59.4999Z" fill="url(#paint1_linear)"/>
<path d="M882 76L879 327.5C569.478 379.608 -63.7104 416.263 2.40857 314.893C244 -55.5 600.5 147.5 882 76Z" fill="url(#paint2_linear)"/>
</g>
<defs>
<linearGradient id="paint0_linear" x1="149" y1="303.5" x2="857" y2="45.0001" gradientUnits="userSpaceOnUse">
<stop stop-color="#E0FFFB"/>
<stop offset="1" stop-color="#D9FFFA" stop-opacity="0.73"/>
</linearGradient>
<linearGradient id="paint1_linear" x1="325" y1="153" x2="852" y2="303" gradientUnits="userSpaceOnUse">
<stop stop-color="#C3FBFF" stop-opacity="0.83"/>
<stop offset="1" stop-color="#9DF6FC" stop-opacity="0.57"/>
</linearGradient>
<linearGradient id="paint2_linear" x1="241" y1="121" x2="723" y2="302" gradientUnits="userSpaceOnUse">
<stop stop-color="#98ECFF" stop-opacity="0.87"/>
<stop offset="0.520833" stop-color="#B6EDFF" stop-opacity="0.81"/>
<stop offset="1" stop-color="#98DAFF" stop-opacity="0.54"/>
</linearGradient>
<clipPath id="clip0">
<rect width="872" height="311" fill="white" transform="translate(872 311) rotate(-180)"/>
</clipPath>
</defs>
</svg>
