<svg width="872" height="311" viewBox="0 0 872 311" fill="none" xmlns="http://www.w3.org/2000/svg">
<g clip-path="url(#clip0)">
<rect width="872" height="311" transform="translate(872 311) rotate(-180)" fill="white"/>
<path d="M895 27L906 303.074L390.983 378.082C215.174 400.39 -179.367 401.604 -50.6522 251.404C76.3016 103.258 675.5 124 895 27Z" fill="url(#paint0_linear)"/>
<path d="M884.5 59.5L889 338.988C568.606 413.705 -68.0404 345.843 -24.5 288.5C169.5 33 615 130 884.5 59.5Z" fill="url(#paint1_linear)"/>
<path d="M882 76L879 327.5C569.478 379.608 -63.7104 416.263 2.40857 314.893C244 -55.5 600.5 147.5 882 76Z" fill="url(#paint2_linear)"/>
</g>
<defs>
<linearGradient id="paint0_linear" x1="149" y1="303.5" x2="713" y2="155" gradientUnits="userSpaceOnUse">
<stop stop-color="#E7F9FF"/>
<stop offset="1" stop-color="#ECFAFF" stop-opacity="0.73"/>
</linearGradient>
<linearGradient id="paint1_linear" x1="169" y1="274.499" x2="767" y2="194.999" gradientUnits="userSpaceOnUse">
<stop stop-color="#C3F0FF"/>
<stop offset="1" stop-color="#CEF3FF" stop-opacity="0.86"/>
</linearGradient>
<linearGradient id="paint2_linear" x1="199.5" y1="155" x2="823" y2="252.5" gradientUnits="userSpaceOnUse">
<stop stop-color="#A0E8FF" stop-opacity="0.77"/>
<stop offset="1" stop-color="#C9F2FF" stop-opacity="0.42"/>
</linearGradient>
<clipPath id="clip0">
<rect width="872" height="311" fill="white" transform="translate(872 311) rotate(-180)"/>
</clipPath>
</defs>
</svg>
