<svg width="872" height="349" viewBox="0 0 872 349" fill="none" xmlns="http://www.w3.org/2000/svg">
<g clip-path="url(#clip0)">
<rect width="872" height="349" fill="white"/>
<path d="M-23.0016 358L-34 25.1743L480.944 -65.254C656.728 -92.1479 1058.73 -86.9465 922.516 87.4659C790.5 256.5 148.974 191.96 -23.0016 358Z" fill="url(#paint0_linear)"/>
<path d="M-19.4662 294L-24 -23.639C298.803 -108.554 989.712 -48.0732 897.5 46C625 324 282 158 -19.4662 294Z" fill="url(#paint1_linear)"/>
<path d="M-10 235L-6.98438 -16.4195C304.15 -68.5114 971.582 -142.579 874.5 -4.00005C623 355 272.966 163.523 -10 235Z" fill="url(#paint2_linear)"/>
</g>
<defs>
<linearGradient id="paint0_linear" x1="804.881" y1="71.0745" x2="-230.569" y2="244.003" gradientUnits="userSpaceOnUse">
<stop stop-color="#B3FBE9"/>
<stop offset="1" stop-color="#B3FBE9"/>
</linearGradient>
<linearGradient id="paint1_linear" x1="848.656" y1="20.0764" x2="-44.3086" y2="223.289" gradientUnits="userSpaceOnUse">
<stop stop-color="#88E6EC" stop-opacity="0.82"/>
<stop offset="1" stop-color="#75ECF3" stop-opacity="0.76"/>
</linearGradient>
<linearGradient id="paint2_linear" x1="745.5" y1="154.5" x2="5.04376" y2="4.81272" gradientUnits="userSpaceOnUse">
<stop stop-color="#47D3F2" stop-opacity="0.53"/>
<stop offset="0.491393" stop-color="#9CDBEF" stop-opacity="0.81"/>
<stop offset="1" stop-color="#54C1FF" stop-opacity="0.54"/>
</linearGradient>
<clipPath id="clip0">
<rect width="872" height="349" fill="white"/>
</clipPath>
</defs>
</svg>
