<svg width="872" height="311" viewBox="0 0 872 311" fill="none" xmlns="http://www.w3.org/2000/svg">
<g clip-path="url(#clip0)">
<rect width="872" height="311" fill="white"/>
<path d="M-23 284L-34 7.92645L481.017 -67.0824C656.826 -89.3904 1051.37 -90.6043 922.652 59.5964C795.698 207.742 196.5 187 -23 284Z" fill="url(#paint0_linear)"/>
<path d="M-4.5 224.5L-17 -27.9885C303.394 -102.705 940.04 -34.8431 896.5 22.5C702.5 278 302.232 210.22 -4.5 224.5Z" fill="url(#paint1_linear)"/>
<path d="M-7 255V-16.5C302.522 -68.6085 935.71 -105.263 869.591 -3.89301C628 366.5 274.5 183.5 -7 255Z" fill="url(#paint2_linear)"/>
</g>
<defs>
<linearGradient id="paint0_linear" x1="723" y1="7.50001" x2="159" y2="156" gradientUnits="userSpaceOnUse">
<stop stop-color="#E7F9FF"/>
<stop offset="1" stop-color="#ECFAFF" stop-opacity="0.73"/>
</linearGradient>
<linearGradient id="paint1_linear" x1="703" y1="36.5008" x2="105" y2="116.001" gradientUnits="userSpaceOnUse">
<stop stop-color="#C3F0FF"/>
<stop offset="1" stop-color="#CEF3FF" stop-opacity="0.86"/>
</linearGradient>
<linearGradient id="paint2_linear" x1="575.5" y1="202" x2="169.5" y2="-2.49993" gradientUnits="userSpaceOnUse">
<stop stop-color="#A0E8FF" stop-opacity="0.89"/>
<stop offset="1" stop-color="#B4EDFF" stop-opacity="0.78"/>
</linearGradient>
<clipPath id="clip0">
<rect width="872" height="311" fill="white"/>
</clipPath>
</defs>
</svg>
