<svg width="400" height="300" viewBox="0 0 400 300" fill="none" xmlns="http://www.w3.org/2000/svg">
<rect width="400" height="300" fill="white"/>
<path d="M0 300L400 0V100L0 300Z" fill="url(#paint0_linear)" fill-opacity="0.5"/>
<path d="M0 300V0H400L0 300Z" fill="url(#paint1_linear)" fill-opacity="0.5"/>
<path d="M0 300V0H250L0 300Z" fill="url(#paint2_linear)" fill-opacity="0.5"/>
<path d="M0 150V0H400L0 150Z" fill="url(#paint3_linear)" fill-opacity="0.5"/>
<path d="M0 300V0L174 213L0 300Z" fill="url(#paint4_linear)" fill-opacity="0.5"/>
<defs>
<linearGradient id="paint0_linear" x1="396" y1="25.5" x2="145.727" y2="397.929" gradientUnits="userSpaceOnUse">
<stop stop-color="#61DEC8" stop-opacity="0.68"/>
<stop offset="1" stop-color="#15D5FF" stop-opacity="0.81"/>
</linearGradient>
<linearGradient id="paint1_linear" x1="400" y1="0" x2="1.42071e-05" y2="159" gradientUnits="userSpaceOnUse">
<stop offset="0.015662" stop-color="#00B3DB" stop-opacity="0.73"/>
<stop offset="1" stop-color="#6ADAC6" stop-opacity="0.95"/>
</linearGradient>
<linearGradient id="paint2_linear" x1="125" y1="3.10441e-06" x2="5.2154e-07" y2="300" gradientUnits="userSpaceOnUse">
<stop stop-color="#1ED6FF" stop-opacity="0.54"/>
<stop offset="1" stop-color="#5FD7F1" stop-opacity="0.54"/>
</linearGradient>
<linearGradient id="paint3_linear" x1="400" y1="-2.25504e-05" x2="-54" y2="79" gradientUnits="userSpaceOnUse">
<stop offset="0.0311757" stop-color="#8DF6E4" stop-opacity="0.68"/>
<stop offset="1" stop-color="#6DCFEE" stop-opacity="0.94"/>
</linearGradient>
<linearGradient id="paint4_linear" x1="36.5" y1="40" x2="97.1449" y2="276.77" gradientUnits="userSpaceOnUse">
<stop stop-color="white" stop-opacity="0.24"/>
<stop offset="1" stop-color="white" stop-opacity="0.83"/>
</linearGradient>
</defs>
</svg>
